<svg width="80" height="80" viewBox="0 0 80 80" fill="none" xmlns="http://www.w3.org/2000/svg">
<g clip-path="url(#clip0)">
<path d="M40 80C62.0914 80 80 62.0914 80 40C80 17.9086 62.0914 0 40 0C17.9086 0 0 17.9086 0 40C0 62.0914 17.9086 80 40 80Z" fill="url(#paint0_linear)"/>
<path opacity="0.4" d="M58.3676 16.832L89.2796 34.944C89.7276 35.2 89.7276 35.904 89.2796 36.16L38.5276 65.664C37.5036 66.24 36.2876 66.24 35.2636 65.664L4.35162 47.552C3.90362 47.296 3.90362 46.592 4.35162 46.336L55.1036 16.832C56.1276 16.256 57.3436 16.256 58.3676 16.832Z" fill="#00BACE"/>
<path opacity="0.4" d="M58.3676 21.696L89.2796 39.808C89.7276 40.064 89.7276 40.768 89.2796 41.024L38.5276 70.528C37.5036 71.104 36.2876 71.104 35.2636 70.528L4.35162 52.352C3.90362 52.096 3.90362 51.392 4.35162 51.136L55.1036 21.632C56.1276 21.12 57.3436 21.12 58.3676 21.696Z" fill="#21CEDB"/>
<path opacity="0.4" d="M58.3678 26.496L89.2798 44.608C89.7278 44.864 89.7278 45.568 89.2798 45.824L38.5278 75.328C37.5038 75.904 36.2878 75.904 35.2638 75.328L4.35177 57.216C3.83977 56.96 3.83977 56.256 4.35177 56L55.1038 26.496C56.1278 25.92 57.3438 25.92 58.3678 26.496Z" fill="#ABEBEE"/>
<path d="M58.3676 13.248L89.2796 31.36C89.7276 31.616 89.7276 32.32 89.2796 32.576L38.5276 62.08C37.5036 62.656 36.2876 62.656 35.2636 62.08L4.35162 43.968C3.90362 43.712 3.90362 43.008 4.35162 42.752L55.1036 13.248C56.1276 12.672 57.3436 12.672 58.3676 13.248Z" fill="#1A1A1A"/>
<path d="M58.3676 12.032L89.2796 30.144C89.7276 30.4 89.7276 31.104 89.2796 31.36L38.5276 60.864C37.5036 61.44 36.2876 61.44 35.2636 60.864L4.35162 42.752C3.90362 42.496 3.90362 41.792 4.35162 41.536L55.1036 12.032C56.1276 11.456 57.3436 11.456 58.3676 12.032Z" fill="#0363EF"/>
<path opacity="0.2" d="M47.5516 16.3839L4.35162 41.5359C3.90362 41.7919 3.90362 42.4959 4.35162 42.7519L35.2636 60.8639C36.2876 61.4399 37.5036 61.4399 38.5276 60.8639L47.5516 55.6159V16.3839Z" fill="white"/>
<path d="M5.05566 42.304L55.6797 12.864C56.3197 12.48 57.1517 12.48 57.7917 12.864L88.7677 31.04" stroke="white" stroke-width="0.5" stroke-miterlimit="10" stroke-linecap="round" stroke-linejoin="round"/>
<path d="M29.1836 51.776L37.8236 46.72L40.2556 48.128L31.6156 53.184L29.1836 51.776Z" fill="#ABEBEE"/>
<path d="M33.7275 54.72L47.3595 46.72L49.7915 48.128L36.0955 56.128L33.7275 54.72Z" fill="#ABEBEE"/>
<path d="M40.2559 45.3119L48.8959 40.3199L51.3279 41.7279L42.6239 46.7199L40.2559 45.3119Z" fill="#ABEBEE"/>
<path d="M51.3276 38.912L59.9676 33.856L62.3996 35.264L53.6956 40.32L51.3276 38.912Z" fill="#ABEBEE"/>
<path d="M62.3999 32.4481L71.0399 27.4561L73.4079 28.8641L64.7679 33.8561L62.3999 32.4481Z" fill="#ABEBEE"/>
<path d="M26.176 46.7839L31.424 43.7119L29.248 42.4319L24 45.5039L26.176 46.7839Z" fill="#ABEBEE"/>
<path d="M23.6161 45.3119L28.8641 42.2399L28.4801 42.0479C27.7761 41.5999 26.8801 41.5999 26.1761 42.0479L22.0161 44.4159L23.6161 45.3119Z" fill="#ABEBEE"/>
<path d="M21.696 44.6079L20.608 45.2479C20.16 45.5039 20.16 46.1439 20.608 46.3999L24.896 48.8959C25.6 49.3439 26.496 49.3439 27.2 48.8959L28.096 48.3839L21.696 44.6079Z" fill="#ABEBEE"/>
<path d="M31.8081 43.9039L26.5601 46.9759L28.4801 48.1279L32.7681 45.6319C33.2161 45.3759 33.2161 44.7359 32.7681 44.4799L31.8081 43.9039Z" fill="#ABEBEE"/>
</g>
<defs>
<linearGradient id="paint0_linear" x1="40" y1="80" x2="40" y2="0" gradientUnits="userSpaceOnUse">
<stop stop-color="#FDFBF2"/>
<stop offset="1" stop-color="#E2FAFF"/>
</linearGradient>
<clipPath id="clip0">
<rect width="80" height="80" rx="40" fill="white"/>
</clipPath>
</defs>
</svg>
