<svg width="80" height="80" viewBox="0 0 80 80" fill="none" xmlns="http://www.w3.org/2000/svg">
<g clip-path="url(#clip0)">
<path d="M40 80C62.0914 80 80 62.0914 80 40C80 17.9086 62.0914 0 40 0C17.9086 0 0 17.9086 0 40C0 62.0914 17.9086 80 40 80Z" fill="url(#paint0_linear)"/>
<path fill-rule="evenodd" clip-rule="evenodd" d="M105.152 29.632C112.64 45.632 105.792 64.704 89.7281 72.256C84.3521 74.752 78.6561 75.648 73.1521 75.136C71.3601 82.112 66.5601 88.192 59.5201 91.52C49.2801 96.32 37.4401 93.568 30.2081 85.568C28.5441 87.488 26.4321 89.088 24.0001 90.24C14.5281 94.656 3.26414 90.624 -1.15186 81.152C-5.56786 71.68 -1.47186 60.416 8.00014 56C14.2081 53.056 21.2481 53.824 26.5601 57.408C28.9921 52.608 33.0241 48.512 38.2721 46.08C40.1921 45.184 42.1761 44.544 44.0961 44.16C43.7761 31.808 50.6241 19.84 62.5281 14.208C78.5921 6.72002 97.6641 13.632 105.152 29.632Z" fill="url(#paint1_linear)"/>
<path d="M51.8404 55.6801H31.3604V44.8001C31.3604 39.1681 35.9684 34.5601 41.6004 34.5601H63.3604C68.9924 34.5601 73.6003 39.1681 73.6003 44.8001V53.1201C73.6003 54.5281 72.4483 55.6801 71.0404 55.6801H51.8404Z" fill="#0363EF"/>
<path d="M31.3604 55.6801H51.8404V44.8001C51.8404 39.1681 47.2324 34.5601 41.6004 34.5601C35.9684 34.5601 31.3604 39.1681 31.3604 44.8001V55.6801Z" fill="#0036C5"/>
<path d="M27.2642 50.112C23.8722 45.44 25.7922 41.6 31.4882 41.6C37.1842 41.6 44.5442 45.44 47.8722 50.112L51.8402 55.68H31.2322L27.2642 50.112Z" fill="black"/>
<path d="M55.6799 55.6801H49.9199V80.0001H55.6799V55.6801Z" fill="#0036C5"/>
<path d="M33.2801 31.104C28.4801 24.576 26.9441 21.184 26.8801 15.872L14.8481 12.8C15.6801 19.712 17.3441 24.96 21.6961 28.16C23.4881 29.184 33.2801 31.104 33.2801 31.104Z" fill="#21CEDB"/>
<path d="M37.12 38.08C29.952 32.192 27.264 28.928 25.664 23.04H11.52C14.4 30.464 17.728 35.776 23.424 38.08C25.664 38.784 37.12 38.08 37.12 38.08Z" fill="white"/>
<path d="M39.4881 39.616C42.7753 39.616 45.4401 36.9512 45.4401 33.664C45.4401 30.3768 42.7753 27.712 39.4881 27.712C36.2009 27.712 33.5361 30.3768 33.5361 33.664C33.5361 36.9512 36.2009 39.616 39.4881 39.616Z" fill="#21CEDB"/>
<path d="M40.0002 52.2881C39.2962 52.2881 38.7202 51.7121 38.7202 51.0081V39.1681H40.7682L40.5762 52.2881C40.6402 52.2881 40.7042 52.2881 40.0002 52.2881Z" fill="#21CEDB"/>
<path d="M40.6404 52.2881C39.9364 52.2881 39.3604 51.7121 39.3604 51.0081V39.1681H41.8564V51.0081C41.9204 51.7121 41.3444 52.2881 40.6404 52.2881Z" fill="white"/>
<path d="M40.5121 39.616C43.7993 39.616 46.4641 36.9512 46.4641 33.664C46.4641 30.3768 43.7993 27.712 40.5121 27.712C37.2249 27.712 34.5601 30.3768 34.5601 33.664C34.5601 36.9512 37.2249 39.616 40.5121 39.616Z" fill="white"/>
<path d="M43.7761 35.7121C43.8401 35.6481 43.8401 35.5841 43.8401 35.4561V31.8081C43.8401 31.7441 43.8401 31.6161 43.7761 31.5521L41.6641 33.5361L43.7761 35.7121Z" fill="#21CEDB"/>
<path d="M40.064 33.8561C40.32 34.1121 40.704 34.1121 40.96 33.8561L43.584 31.3601C43.52 31.3601 43.392 31.3601 43.328 31.3601H37.632C37.568 31.3601 37.504 31.3601 37.376 31.4241L40.064 33.8561Z" fill="#21CEDB"/>
<path d="M37.1841 31.6161C37.1201 31.6801 37.1201 31.7441 37.1201 31.8721V35.5201C37.1201 35.5841 37.1201 35.6481 37.1841 35.7761L39.2961 33.6641L37.1841 31.6161Z" fill="#21CEDB"/>
<path d="M41.4719 33.8562L41.1519 34.1122C40.9599 34.3042 40.7039 34.3682 40.5119 34.3682C40.2559 34.3682 40.0639 34.3042 39.8719 34.1122L39.5519 33.8562L37.4399 35.9682C37.5039 36.0322 37.5679 36.0322 37.6959 36.0322H43.3919C43.4559 36.0322 43.5199 36.0322 43.6479 35.9682L41.4719 33.8562Z" fill="#21CEDB"/>
</g>
<defs>
<linearGradient id="paint0_linear" x1="80" y1="40" x2="0" y2="40" gradientUnits="userSpaceOnUse">
<stop stop-color="#FDFBF2"/>
<stop offset="1" stop-color="#E2FAFF"/>
</linearGradient>
<linearGradient id="paint1_linear" x1="38.1045" y1="25.7015" x2="67.2607" y2="87.9017" gradientUnits="userSpaceOnUse">
<stop offset="0.1562" stop-color="#85ECF3"/>
<stop offset="1" stop-color="#8BF4DB"/>
</linearGradient>
<clipPath id="clip0">
<rect width="80" height="80" rx="40" fill="white"/>
</clipPath>
</defs>
</svg>
