<svg width="40" height="40" viewBox="0 0 40 40" fill="none" xmlns="http://www.w3.org/2000/svg">
<path d="M0 20C0 8.95431 8.95431 0 20 0C31.0457 0 40 8.95431 40 20C40 31.0457 31.0457 40 20 40C8.95431 40 0 31.0457 0 20Z" fill="#FDCC1E"/>
<path d="M27.744 17.4347C27.207 13.5568 24.2241 11.3068 20.3548 11.3068C15.7951 11.3068 12.3604 14.6307 12.3604 20.2727C12.3604 25.9062 15.7525 29.2386 20.3548 29.2386C24.5053 29.2386 27.2582 26.554 27.744 23.2216L24.5565 23.2045C24.1559 25.25 22.4854 26.4006 20.3974 26.4006C17.5678 26.4006 15.5394 24.2784 15.5394 20.2727C15.5394 16.3352 17.5508 14.1449 20.4059 14.1449C22.5281 14.1449 24.19 15.3466 24.5565 17.4347H27.744Z" fill="white"/>
</svg>
