<svg width="40" height="40" viewBox="0 0 40 40" fill="none" xmlns="http://www.w3.org/2000/svg">
<path d="M0 20C0 8.95431 8.95431 0 20 0C31.0457 0 40 8.95431 40 20C40 31.0457 31.0457 40 20 40C8.95431 40 0 31.0457 0 20Z" fill="#21CEDB"/>
<path d="M26 20V27.5H14V20" stroke="white" stroke-width="2" stroke-linecap="round" stroke-linejoin="round"/>
<path d="M27.5 16.25H12.5V20H27.5V16.25Z" stroke="white" stroke-width="2" stroke-linecap="round" stroke-linejoin="round"/>
<path d="M20 27.5V16.25" stroke="white" stroke-width="2" stroke-linecap="round" stroke-linejoin="round"/>
<path d="M20 16.25H16.625C16.1277 16.25 15.6508 16.0525 15.2992 15.7008C14.9475 15.3492 14.75 14.8723 14.75 14.375C14.75 13.8777 14.9475 13.4008 15.2992 13.0492C15.6508 12.6975 16.1277 12.5 16.625 12.5C19.25 12.5 20 16.25 20 16.25Z" stroke="white" stroke-width="2" stroke-linecap="round" stroke-linejoin="round"/>
<path d="M20 16.25H23.375C23.8723 16.25 24.3492 16.0525 24.7008 15.7008C25.0525 15.3492 25.25 14.8723 25.25 14.375C25.25 13.8777 25.0525 13.4008 24.7008 13.0492C24.3492 12.6975 23.8723 12.5 23.375 12.5C20.75 12.5 20 16.25 20 16.25Z" stroke="white" stroke-width="2" stroke-linecap="round" stroke-linejoin="round"/>
</svg>
