<svg width="40" height="40" viewBox="0 0 40 40" fill="none" xmlns="http://www.w3.org/2000/svg">
<path d="M0 20C0 8.95431 8.95431 0 20 0C31.0457 0 40 8.95431 40 20C40 31.0457 31.0457 40 20 40C8.95431 40 0 31.0457 0 20Z" fill="#21CEDB"/>
<path d="M26.6301 14.4575C26.247 14.0743 25.7922 13.7703 25.2916 13.5628C24.791 13.3554 24.2545 13.2487 23.7126 13.2487C23.1707 13.2487 22.6342 13.3554 22.1336 13.5628C21.633 13.7703 21.1782 14.0743 20.7951 14.4575L20.0001 15.2525L19.2051 14.4575C18.4313 13.6838 17.3819 13.2491 16.2876 13.2491C15.1933 13.2491 14.1439 13.6838 13.3701 14.4575C12.5963 15.2313 12.1616 16.2808 12.1616 17.375C12.1616 18.4693 12.5963 19.5188 13.3701 20.2925L14.1651 21.0875L20.0001 26.9225L25.8351 21.0875L26.6301 20.2925C27.0133 19.9095 27.3174 19.4546 27.5248 18.954C27.7322 18.4534 27.839 17.9169 27.839 17.375C27.839 16.8332 27.7322 16.2966 27.5248 15.796C27.3174 15.2954 27.0133 14.8406 26.6301 14.4575Z" fill="white" stroke="white" stroke-width="2" stroke-linecap="round" stroke-linejoin="round"/>
</svg>
