<svg width="20" height="19" viewBox="0 0 20 19" fill="none" xmlns="http://www.w3.org/2000/svg">
<path d="M7.75 17.4999C8.16421 17.4999 8.5 17.1641 8.5 16.7499C8.5 16.3357 8.16421 15.9999 7.75 15.9999C7.33579 15.9999 7 16.3357 7 16.7499C7 17.1641 7.33579 17.4999 7.75 17.4999Z" fill="#333333" stroke="#333333" stroke-width="2" stroke-linecap="round" stroke-linejoin="round"/>
<path d="M16 17.4999C16.4142 17.4999 16.75 17.1641 16.75 16.7499C16.75 16.3357 16.4142 15.9999 16 15.9999C15.5858 15.9999 15.25 16.3357 15.25 16.7499C15.25 17.1641 15.5858 17.4999 16 17.4999Z" fill="#333333" stroke="#333333" stroke-width="2" stroke-linecap="round" stroke-linejoin="round"/>
<path d="M1.75 1.74988H4.75L6.76 11.7924C6.82858 12.1377 7.01643 12.4478 7.29066 12.6686C7.56489 12.8894 7.90802 13.0066 8.26 12.9999H15.55C15.902 13.0066 16.2451 12.8894 16.5193 12.6686C16.7936 12.4478 16.9814 12.1377 17.05 11.7924L18.25 5.49988" stroke="#333333" stroke-width="2" stroke-linecap="round" stroke-linejoin="round"/>
<path d="M10 3.25323C10.1763 2.75199 10.5244 2.32931 10.9825 2.06008C11.4406 1.79085 11.9792 1.69244 12.5029 1.78227C13.0266 1.8721 13.5016 2.14438 13.8438 2.55088C14.186 2.95738 14.3733 3.47188 14.3725 4.00323C14.3725 5.50324 12.1225 6.25323 12.1225 6.25323" stroke="#333333" stroke-width="2" stroke-linecap="round" stroke-linejoin="round"/>
<path d="M12.1826 9.25317H12.1901" stroke="#333333" stroke-width="2" stroke-linecap="round" stroke-linejoin="round"/>
</svg>
