<svg width="48" height="34" viewBox="0 0 48 34" fill="none" xmlns="http://www.w3.org/2000/svg">
<rect width="48" height="34" rx="4" fill="black" fill-opacity="0.05"/>
<path d="M22.5625 20.6733H25V20.5114C25.0341 18.5511 25.5966 17.6733 27.0455 16.7784C28.571 15.858 29.5085 14.5625 29.5085 12.6449C29.5085 9.875 27.4119 8 24.2841 8C21.4119 8 19.1108 9.67898 19 12.7472H21.5909C21.6932 10.9403 22.9801 10.1477 24.2841 10.1477C25.733 10.1477 26.9091 11.1108 26.9091 12.6193C26.9091 13.8892 26.1165 14.7841 25.1023 15.4148C23.517 16.3864 22.5795 17.3494 22.5625 20.5114V20.6733ZM23.8494 25.8551C24.7784 25.8551 25.554 25.0966 25.554 24.1506C25.554 23.2216 24.7784 22.4545 23.8494 22.4545C22.9119 22.4545 22.1449 23.2216 22.1449 24.1506C22.1449 25.0966 22.9119 25.8551 23.8494 25.8551Z" fill="black" fill-opacity="0.4"/>
<rect x="0.5" y="0.5" width="47" height="33" rx="3.5" stroke="black" stroke-opacity="0.05"/>
</svg>
