<svg width="24" height="24" viewBox="0 0 24 24" fill="none" xmlns="http://www.w3.org/2000/svg">
<path d="M8 11V5C8 2.79086 9.79086 1 12 1V1C14.2091 1 16 2.79086 16 5V11" stroke="#00BACE" stroke-width="2"/>
<path fill-rule="evenodd" clip-rule="evenodd" d="M7 8C5.34315 8 4 9.34315 4 11V21C4 22.6569 5.34315 24 7 24H17C18.6569 24 20 22.6569 20 21V11C20 9.34315 18.6569 8 17 8H7ZM17.7134 12.7007C18.1004 12.3067 18.0947 11.6735 17.7007 11.2866C17.3067 10.8996 16.6735 10.9053 16.2866 11.2993L10.125 17.5729L7.71345 15.1175C7.32646 14.7234 6.69332 14.7177 6.29929 15.1047C5.90527 15.4917 5.89956 16.1249 6.28655 16.5189L9.41155 19.7007C9.59958 19.8922 9.85666 20 10.125 20C10.3933 20 10.6504 19.8922 10.8384 19.7007L17.7134 12.7007Z" fill="#00BACE"/>
</svg>
