<svg width="24" height="24" viewBox="0 0 24 24" fill="none" xmlns="http://www.w3.org/2000/svg">
<path d="M9 19V9C9 7.34315 10.3431 6 12 6H16C18.2091 6 20 7.79086 20 10V18C20 20.2091 18.2091 22 16 22H12C10.3431 22 9 20.6569 9 19Z" stroke-width="2"/>
<path d="M15 9.5V9C15 7.34315 13.6569 6 12 6H8C5.79086 6 4 7.79086 4 10V18C4 20.2091 5.79086 22 8 22H12C13.6569 22 15 20.6569 15 19V13" stroke-width="2" stroke-linecap="round"/>
<path d="M15 10C13.3431 10 12 11.3431 12 13H18C18 11.3431 16.6569 10 15 10Z" stroke-width="2" stroke-linecap="round" stroke-linejoin="round"/>
<path d="M14.5867 2.64671C14.9435 2.21557 15.4192 2 16.0139 2C16.5669 2 17.0337 2.19461 17.4202 2.58383C17.8067 2.97305 18 3.44611 18 4C18 4.55389 17.8067 5.02695 17.4202 5.41617C17.0337 5.80539 16.5639 6 16.0139 6H12L14.5867 2.64671Z" stroke-width="2"/>
<path d="M7.97926 6C7.42815 6 6.96296 5.80539 6.57778 5.41617C6.19259 5.02695 6 4.55389 6 4C6 3.44611 6.19259 2.97305 6.57778 2.58383C6.96296 2.19461 7.42815 2 7.97926 2C8.57185 2 9.04593 2.21557 9.40148 2.64671L12 6H7.97926Z" stroke-width="2"/>
</svg>
