<svg width="18" height="18" viewBox="0 0 18 18" xmlns="http://www.w3.org/2000/svg" stroke="white">
<path d="M12.75 2.25004C12.947 2.05306 13.1808 1.89681 13.4382 1.7902C13.6956 1.68359 13.9714 1.62872 14.25 1.62872C14.5286 1.62872 14.8044 1.68359 15.0618 1.7902C15.3192 1.89681 15.553 2.05306 15.75 2.25004C15.947 2.44703 16.1032 2.68088 16.2098 2.93825C16.3165 3.19562 16.3713 3.47147 16.3713 3.75004C16.3713 4.02862 16.3165 4.30447 16.2098 4.56184C16.1032 4.81921 15.947 5.05306 15.75 5.25004L5.625 15.375L1.5 16.5L2.625 12.375L12.75 2.25004Z" stroke-width="2" stroke-linecap="round" stroke-linejoin="round" fill="none"/>
</svg>
