<svg width="16" height="16" viewBox="0 0 16 16" fill="none" stroke-width="0" xmlns="http://www.w3.org/2000/svg">
  <path d="M8 13.333H8.00667" stroke="#D81010" stroke-width="2" stroke-linecap="round" stroke-linejoin="round"/>
  <path d="M3.6665 5.66699C3.6665 6.21928 4.11422 6.66699 4.6665 6.66699C5.21879 6.66699 5.6665 6.21928 5.6665 5.66699H3.6665ZM7.99984 8.66699V7.66699C7.44755 7.66699 6.99984 8.11471 6.99984 8.66699H7.99984ZM6.99984 10.667C6.99984 11.2193 7.44755 11.667 7.99984 11.667C8.55212 11.667 8.99984 11.2193 8.99984 10.667H6.99984ZM5.6665 5.66699C5.6665 4.90356 5.91111 4.45298 6.23396 4.17625C6.58038 3.87932 7.15326 3.66699 7.99984 3.66699V1.66699C6.84642 1.66699 5.75263 1.95467 4.93238 2.65774C4.08856 3.38101 3.6665 4.43042 3.6665 5.66699H5.6665ZM7.99984 3.66699C9.51863 3.66699 10.3332 4.62111 10.3332 5.66699H12.3332C12.3332 3.37954 10.481 1.66699 7.99984 1.66699V3.66699ZM10.3332 5.66699C10.3332 6.2903 10.0354 6.76531 9.5665 7.11699C9.07293 7.48717 8.45013 7.66699 7.99984 7.66699V9.66699C8.88287 9.66699 9.92674 9.34681 10.7665 8.71699C11.6309 8.06868 12.3332 7.04369 12.3332 5.66699H10.3332ZM6.99984 8.66699V10.667H8.99984V8.66699H6.99984Z" fill="#D81010" />
</svg>
