<svg width="48" height="35" viewBox="0 0 48 35" fill="none" xmlns="http://www.w3.org/2000/svg">
<rect width="48" height="34.0167" rx="4" fill="#EAF3F6"/>
<path d="M14.2667 7H22.2537C23.3687 7 24.0621 7.90875 23.802 9.02737L20.0835 24.9925C19.8211 26.1072 18.7048 27.0167 17.5891 27.0167H9.60283C8.48947 27.0167 7.79447 26.1072 8.05456 24.9925L11.7746 9.02737C12.0347 7.90875 13.1504 7 14.2667 7Z" fill="#E21836"/>
<path d="M21.5895 7H30.7743C31.8891 7 31.3864 7.90875 31.1242 9.02737L27.4062 24.9925C27.1454 26.1072 27.2267 27.0167 26.1097 27.0167H16.9248C15.8077 27.0167 15.1164 26.1072 15.3789 24.9925L19.0966 9.02737C19.3606 7.90875 20.474 7 21.5895 7Z" fill="#00447C"/>
<path d="M30.4099 7H38.3969C39.5134 7 40.2068 7.90875 39.9446 9.02737L36.2266 24.9925C35.9642 26.1072 34.8472 27.0167 33.7309 27.0167H25.7476C24.6305 27.0167 23.9376 26.1072 24.1993 24.9925L27.9178 9.02737C28.1779 7.90875 29.2928 7 30.4099 7Z" fill="#007B84"/>
<path d="M16.3525 12.1163C15.5312 12.1247 15.2886 12.1163 15.2112 12.098C15.1814 12.2396 14.6271 14.7963 14.6256 14.7984C14.5062 15.3157 14.4194 15.6844 14.1245 15.9225C13.957 16.0609 13.7616 16.1277 13.535 16.1277C13.1707 16.1277 12.9585 15.9468 12.9229 15.6038L12.9161 15.486C12.9161 15.486 13.0271 14.7931 13.0271 14.7892C13.0271 14.7892 13.6088 12.4593 13.7129 12.1514C13.7184 12.1338 13.7199 12.1247 13.7213 12.1163C12.589 12.1263 12.3883 12.1163 12.3745 12.098C12.3669 12.1231 12.3389 12.2676 12.3389 12.2676L11.7449 14.8936L11.6939 15.1163L11.5952 15.8448C11.5952 16.0609 11.6377 16.2373 11.7221 16.3864C11.9927 16.8592 12.7646 16.9301 13.2013 16.9301C13.7639 16.9301 14.2917 16.8106 14.6483 16.5923C15.2674 16.2265 15.4294 15.6548 15.5738 15.1467L15.6408 14.886C15.6408 14.886 16.24 12.4662 16.3418 12.1514C16.3457 12.1338 16.3473 12.1247 16.3525 12.1163ZM18.3913 14.0684C18.2469 14.0684 17.9829 14.1035 17.7458 14.2197C17.6597 14.2639 17.5784 14.3149 17.4925 14.3657L17.57 14.086L17.5276 14.0388C17.0247 14.1407 16.9122 14.1543 16.4477 14.2197L16.4087 14.2456C16.3548 14.6928 16.3069 15.029 16.107 15.9079C16.0309 16.2319 15.9518 16.5589 15.8726 16.8821L15.894 16.9232C16.37 16.8981 16.5145 16.8981 16.9281 16.9049L16.9616 16.8685C17.0142 16.5992 17.021 16.5362 17.1374 15.9909C17.1921 15.7323 17.3062 15.1643 17.3625 14.962C17.4658 14.9141 17.5679 14.867 17.6652 14.867C17.8971 14.867 17.8688 15.0693 17.8599 15.1499C17.8499 15.2852 17.7655 15.7271 17.6788 16.1065L17.621 16.3514C17.5807 16.5323 17.5365 16.7081 17.4962 16.8874L17.5137 16.9232C17.9829 16.8981 18.126 16.8981 18.5266 16.9049L18.5738 16.8685C18.6462 16.448 18.6674 16.3354 18.7959 15.7232L18.8605 15.4419C18.9861 14.8913 19.0492 14.6122 18.9542 14.3848C18.8537 14.1299 18.6127 14.0684 18.3913 14.0684ZM20.6689 14.6449C20.4195 14.6927 20.2605 14.7247 20.1024 14.7453C19.9457 14.7704 19.7929 14.7932 19.5519 14.8267L19.5328 14.844L19.5153 14.8578C19.4901 15.0373 19.4726 15.1925 19.4393 15.3749C19.4111 15.5635 19.3677 15.7779 19.297 16.0859C19.2423 16.3216 19.2141 16.4038 19.1829 16.4867C19.1526 16.5696 19.1191 16.6502 19.0576 16.8821L19.072 16.9035L19.084 16.9232C19.3093 16.9125 19.4567 16.9049 19.6081 16.9035C19.7594 16.898 19.9161 16.9035 20.1587 16.9049L20.1799 16.8875L20.2027 16.8685C20.2377 16.6594 20.243 16.6031 20.2644 16.5011C20.2856 16.3917 20.3222 16.2402 20.4119 15.8357C20.4544 15.6457 20.5017 15.4563 20.5457 15.2624C20.5914 15.0692 20.6393 14.879 20.6849 14.689L20.6781 14.6661L20.6689 14.6449ZM20.6742 13.8677C20.4476 13.7339 20.0499 13.7764 19.7822 13.9611C19.5153 14.1422 19.4849 14.3991 19.7108 14.5346C19.9335 14.6647 20.3328 14.6259 20.5981 14.4396C20.8644 14.2547 20.8977 14 20.6742 13.8677ZM22.0447 16.9651C22.5031 16.9651 22.9731 16.8387 23.3268 16.4638C23.599 16.1597 23.7238 15.7073 23.767 15.521C23.9077 14.9034 23.7981 14.6151 23.6605 14.4395C23.4514 14.1718 23.0819 14.086 22.6986 14.086C22.4681 14.086 21.9191 14.1088 21.4902 14.5042C21.1822 14.7894 21.0399 15.1764 20.9541 15.5474C20.8674 15.9255 20.7678 16.6061 21.3937 16.8594C21.5868 16.9423 21.8652 16.9651 22.0447 16.9651ZM22.0088 15.5757C22.1145 15.108 22.2393 14.7156 22.5578 14.7156C22.8074 14.7156 22.8255 15.0076 22.7145 15.4768C22.6947 15.5809 22.6036 15.9681 22.4803 16.133C22.3943 16.2547 22.2925 16.3285 22.18 16.3285C22.1465 16.3285 21.9473 16.3285 21.9442 16.0328C21.9426 15.8868 21.9724 15.7376 22.0088 15.5757ZM24.913 16.9049L24.9489 16.8685C24.9997 16.5993 25.008 16.536 25.1206 15.9909C25.1768 15.7324 25.2932 15.1643 25.3479 14.9621C25.4515 14.914 25.5518 14.8669 25.6522 14.8669C25.8825 14.8669 25.8545 15.0691 25.8453 15.1497C25.837 15.2852 25.7525 15.7269 25.6643 16.1064L25.6096 16.3513C25.5677 16.5323 25.5222 16.7079 25.4819 16.8874L25.4994 16.9232C25.9701 16.8981 26.1078 16.8981 26.5108 16.9049L26.5594 16.8685C26.6301 16.4478 26.6492 16.3353 26.7815 15.7232L26.8446 15.4417C26.9708 14.8912 27.0346 14.6122 26.9412 14.3848C26.8378 14.13 26.5952 14.0685 26.377 14.0685C26.2324 14.0685 25.967 14.1033 25.7313 14.2198C25.647 14.2639 25.5625 14.3148 25.4795 14.3658L25.5518 14.086L25.513 14.0387C25.0104 14.1407 24.8955 14.1543 24.4316 14.2198L24.396 14.2456C24.3397 14.6928 24.294 15.0288 24.094 15.908C24.0179 16.2319 23.9389 16.559 23.8598 16.8822L23.8811 16.9232C24.3578 16.8981 24.5001 16.8981 24.913 16.9049ZM28.3716 16.9231C28.4012 16.7787 28.577 15.9225 28.5785 15.9225C28.5785 15.9225 28.7282 15.2943 28.7374 15.2715C28.7374 15.2715 28.7845 15.2061 28.8316 15.1802H28.9009C29.5548 15.1802 30.2932 15.1802 30.872 14.7544C31.2658 14.4624 31.5351 14.0312 31.6552 13.5071C31.6863 13.3787 31.7093 13.2258 31.7093 13.073C31.7093 12.8723 31.669 12.6737 31.5526 12.5186C31.2575 12.1057 30.6697 12.0981 29.9913 12.0949C29.9892 12.0949 29.6568 12.0981 29.6568 12.0981C28.7884 12.1088 28.4401 12.1057 28.297 12.0881C28.2849 12.1514 28.2622 12.2639 28.2622 12.2639C28.2622 12.2639 27.9511 13.7057 27.9511 13.708C27.9511 13.708 27.2066 16.7734 27.1716 16.9179C27.9299 16.9087 28.2408 16.9087 28.3716 16.9231ZM28.948 14.362C28.948 14.362 29.2788 12.9231 29.2772 12.9286L29.2879 12.8548L29.2926 12.7985L29.4248 12.8121C29.4248 12.8121 30.1069 12.8707 30.1229 12.8723C30.3921 12.9764 30.5031 13.2449 30.4256 13.5953C30.3549 13.9156 30.1472 14.1848 29.8803 14.3149C29.6605 14.425 29.3913 14.4342 29.1139 14.4342H28.9344L28.948 14.362ZM31.0074 15.6023C30.92 15.9749 30.8195 16.6555 31.4423 16.8981C31.6409 16.9826 31.8188 17.0077 31.9997 16.9985C32.1906 16.9882 32.3676 16.8924 32.5315 16.7546C32.5167 16.8113 32.5019 16.8679 32.4871 16.9248L32.5154 16.9612C32.9633 16.9423 33.1023 16.9423 33.5876 16.946L33.6316 16.9125C33.7025 16.4959 33.7693 16.0913 33.9534 15.2943C34.0432 14.9126 34.1327 14.5345 34.2248 14.1543L34.2104 14.1124C33.7093 14.2053 33.5754 14.2252 33.0934 14.2935L33.0568 14.3233C33.0519 14.362 33.0468 14.3992 33.0422 14.4364C32.9672 14.3153 32.8586 14.2119 32.691 14.1475C32.4766 14.0632 31.9732 14.1718 31.5404 14.5659C31.2363 14.8472 31.0903 15.2326 31.0074 15.6023ZM32.0598 15.6251C32.1671 15.1658 32.2903 14.7773 32.6096 14.7773C32.8115 14.7773 32.9178 14.9636 32.8962 15.2813C32.879 15.3605 32.8605 15.444 32.8385 15.5385C32.8066 15.6749 32.7719 15.8102 32.7383 15.9457C32.704 16.0384 32.6641 16.1258 32.6203 16.184C32.5381 16.3004 32.3427 16.3727 32.2302 16.3727C32.1982 16.3727 32.0012 16.3727 31.9944 16.0822C31.9928 15.9375 32.0226 15.7886 32.0598 15.6251ZM37.5557 14.1087L37.5169 14.0645C37.0211 14.165 36.9313 14.181 36.4758 14.2425L36.4423 14.276C36.4407 14.2814 36.4394 14.2898 36.437 14.2974L36.4355 14.2898C36.0964 15.0722 36.1063 14.9034 35.8302 15.5194C35.8287 15.4913 35.8287 15.4738 35.8271 15.444L35.758 14.1087L35.7146 14.0645C35.1952 14.165 35.1829 14.181 34.7032 14.2425L34.6659 14.276C34.6606 14.2919 34.6606 14.3094 34.6575 14.3285L34.6606 14.3353C34.7206 14.6418 34.7062 14.5734 34.7663 15.057C34.7944 15.2943 34.8317 15.533 34.8598 15.7674C34.9071 16.1597 34.9335 16.3528 34.9914 16.9514C34.6674 17.486 34.5907 17.6883 34.2788 18.1574L34.281 18.1621L34.0614 18.5094C34.0363 18.546 34.0135 18.5711 33.9816 18.5818C33.9465 18.5992 33.901 18.6023 33.8377 18.6023H33.716L33.5352 19.2038L34.1556 19.2145C34.5199 19.213 34.7488 19.0426 34.872 18.8137L35.2622 18.1452H35.2559L35.297 18.0981C35.5594 17.5331 37.5557 14.1087 37.5557 14.1087ZM31.0074 22.0092H30.7442L31.7183 18.7871H32.0415L32.1441 18.4552L32.154 18.8243C32.142 19.0525 32.3214 19.2547 32.793 19.2212H33.3382L33.5259 18.6008H33.3207C33.2027 18.6008 33.148 18.571 33.1549 18.5072L33.1449 18.1316H32.1351V18.1336C31.8087 18.1404 30.8337 18.1649 30.6363 18.2175C30.3974 18.279 30.1457 18.4601 30.1457 18.4601L30.2446 18.1277H29.3001L29.1032 18.7871L28.116 22.0585H27.9245L27.7366 22.6744H29.618L29.5549 22.8798H30.4819L30.5435 22.6744H30.8035L31.0074 22.0092ZM30.2355 19.4418C30.0842 19.4837 29.8027 19.6106 29.8027 19.6106L30.0531 18.7871H30.8035L30.6225 19.3871C30.6225 19.3871 30.3906 19.4007 30.2355 19.4418ZM30.2499 20.6183C30.2499 20.6183 30.0141 20.6478 29.859 20.6829C29.7061 20.7292 29.4196 20.8752 29.4196 20.8752L29.6781 20.0183H30.4325L30.2499 20.6183ZM29.8294 22.0168H29.0766L29.2948 21.2936H30.0453L29.8294 22.0168ZM31.6423 20.0183H32.7275L32.5715 20.5233H31.472L31.3069 21.0754H32.269L31.5405 22.1011C31.4895 22.1765 31.4438 22.2031 31.393 22.2243C31.3419 22.2502 31.275 22.2806 31.1975 22.2806H30.9306L30.7472 22.8853H31.4453C31.8082 22.8853 32.0225 22.7202 32.1808 22.5035L32.6804 21.8198L32.7876 22.514C32.8104 22.6441 32.9038 22.7202 32.9671 22.7498C33.037 22.7848 33.1092 22.845 33.2112 22.8539C33.3206 22.8586 33.3997 22.8623 33.4522 22.8623H33.7953L34.0012 22.1856H33.8659C33.7883 22.1856 33.6545 22.1726 33.6317 22.1482C33.609 22.1186 33.609 22.0731 33.5967 22.0038L33.4879 21.308H33.0423L33.2377 21.0754H34.3351L34.5039 20.5233H33.4879L33.6461 20.0183H34.6591L34.8469 19.3955H31.8271L31.6423 20.0183ZM22.4773 22.1574L22.7305 21.3149H23.7715L23.9617 20.6882H22.9198L23.0788 20.1696H24.097L24.2856 19.5628H21.7381L21.5533 20.1696H22.1321L21.9777 20.6882H21.3974L21.2051 21.3256H21.7836L21.4461 22.4403C21.4005 22.5879 21.4675 22.6441 21.5099 22.7127C21.5533 22.7794 21.5973 22.8236 21.6962 22.8487C21.7982 22.8715 21.8681 22.8851 21.9631 22.8851H23.1366L23.3457 22.1909L22.8255 22.2624C22.7251 22.2624 22.4469 22.2503 22.4773 22.1574ZM22.5967 18.124L22.3329 18.6007C22.2764 18.7049 22.2256 18.7695 22.1799 18.7993C22.1396 18.8244 22.0597 18.8349 21.9441 18.8349H21.8065L21.6225 19.4448H22.0796C22.2994 19.4448 22.4682 19.3642 22.5488 19.3239C22.6354 19.2776 22.6582 19.3041 22.7252 19.2395L22.8795 19.1057H24.3069L24.4963 18.4707H23.4515L23.6339 18.124H22.5967ZM24.7039 22.1697C24.6796 22.1346 24.6971 22.0729 24.7343 21.9444L25.1244 20.6531H26.5123C26.7146 20.6502 26.8606 20.6479 26.9556 20.6411C27.0576 20.6304 27.1685 20.594 27.2894 20.5285C27.4142 20.46 27.4781 20.3878 27.532 20.3049C27.5922 20.2221 27.6887 20.0411 27.7717 19.7619L28.2621 18.1278L26.8218 18.1362C26.8218 18.1362 26.3784 18.2016 26.1831 18.2738C25.9861 18.3544 25.7046 18.5794 25.7046 18.5794L25.8346 18.1315H24.9449L23.6994 22.2623C23.6552 22.4228 23.6256 22.5392 23.6188 22.6091C23.6165 22.6844 23.7138 22.759 23.7769 22.8152C23.8514 22.8715 23.9616 22.8623 24.0673 22.8715C24.1785 22.8799 24.3366 22.8851 24.5548 22.8851H25.2385L25.4484 22.1765L24.8363 22.2343C24.7709 22.2343 24.7236 22.1993 24.7039 22.1697ZM25.3762 19.781H26.8339L26.7412 20.0714C26.7282 20.0783 26.697 20.057 26.5487 20.0746H25.2864L25.3762 19.781ZM25.6682 18.8068H27.1382L27.0325 19.1567C27.0325 19.1567 26.3396 19.1498 26.2286 19.1703C25.7404 19.2548 25.4552 19.5156 25.4552 19.5156L25.6682 18.8068ZM26.7739 21.0441C26.7618 21.0875 26.7427 21.114 26.716 21.1339C26.6865 21.1529 26.6386 21.1597 26.5671 21.1597H26.3594L26.3717 20.806H25.5077L25.4726 22.5353C25.4713 22.6601 25.4833 22.7324 25.5746 22.7902C25.666 22.8624 25.9473 22.8715 26.3259 22.8715H26.8673L27.0628 22.2242L26.5914 22.2501L26.4347 22.2593C26.4133 22.2501 26.3929 22.2418 26.3701 22.219C26.3502 22.1993 26.3168 22.2114 26.3222 22.0866L26.3259 21.6433L26.8202 21.6229C27.0871 21.6229 27.2012 21.5361 27.2985 21.4533C27.3914 21.3741 27.4217 21.283 27.4568 21.1597L27.5397 20.7673H26.8605L26.7739 21.0441Z" fill="#FEFEFE"/>
<rect x="0.5" y="0.5" width="47" height="33.0167" rx="3.5" stroke="black" stroke-opacity="0.05"/>
</svg>
