<svg width="36" height="36" viewBox="0 0 36 36"
  xmlns="http://www.w3.org/2000/svg">
  <path d="M15.6432 19.5721C16.3023 20.2905 17.1412 20.6696 18.0599 20.6696C18.0599 20.6696 18.0599 20.6696 18.0799 20.6696C18.9987 20.6696 19.8376 20.2506 20.4967 19.5521L30.9827 7.77827C31.2424 7.47894 31.0426 7.01996 30.6432 7C30.6232 7 30.6032 7 30.5832 7H5.43676C5.37684 7 5.31692 7 5.27698 7C4.89748 7.01996 4.71772 7.49889 4.97738 7.77827L15.6432 19.5721Z" fill="#5D9BEC"/>
  <path d="M3.93875 8.45665C3.69907 8.19723 3.25965 8.27705 3.13981 8.59634C3.05992 8.85577 3 9.13515 3 9.43448V24.5409C3 24.6008 3 24.6806 3 24.7205C3.03995 25.1196 3.51931 25.2793 3.79894 25.0198L11.5087 17.5365C11.6884 17.3768 11.6884 17.0775 11.5286 16.8779L3.93875 8.45665Z" fill="#5D9BEC"/>
  <path d="M30.144 27.6541C29.9842 27.3348 30.2039 26.9556 30.5634 26.9556C30.8431 26.9556 31.1027 26.8957 31.3424 26.8159C31.682 26.6962 31.7619 26.2771 31.5022 26.0377L23.6926 18.4545C23.5128 18.2749 23.1933 18.2949 23.0135 18.4745L21.3557 20.3303C20.4769 21.3281 19.2985 21.8669 18.0601 21.8669H18.0401C16.7818 21.8669 15.6034 21.3281 14.7445 20.3503L12.9869 18.4545C12.8071 18.255 12.5075 18.2549 12.3078 18.4346L4.47823 26.0377C4.23855 26.2771 4.31844 26.7161 4.63801 26.8159C4.8777 26.9157 5.15732 26.9556 5.41698 26.9556H18.0002C18.3198 26.9556 18.3198 26.9556 18.5994 27.0953L31.622 33.8802C31.7619 33.96 31.9017 34 32.0615 34C32.3011 34 32.5208 33.9002 32.7206 33.7206C33.0002 33.4412 33.0601 33.0022 32.8604 32.643L30.144 27.6541Z" fill="#5D9BEC"/>
  <path d="M33.0001 9.43453C33.0001 9.11524 32.9402 8.81591 32.8403 8.53653C32.7005 8.21724 32.281 8.13742 32.0613 8.39684L24.4914 16.878C24.3316 17.0576 24.3516 17.337 24.5114 17.5365L32.2011 24.9999C32.4808 25.2793 32.9601 25.0997 33.0001 24.7006C33.0001 24.6407 33.0001 24.5809 33.0001 24.521V9.43453Z" fill="#5D9BEC"/>
</svg>
