<svg width="36" height="36" viewBox="0 0 36 36" xmlns="http://www.w3.org/2000/svg">
<path fill-rule="evenodd" clip-rule="evenodd" d="M14.2739 0L3.1325 2.88922L0.0620373 13.9828L3.90222 17.8866L0 21.726L2.88971 32.8681L13.9829 35.9371L17.8859 32.0969L21.7261 36L32.8675 33.1108L35.9372 22.0165L32.0978 18.1141L36 14.2747L33.1103 3.13189L22.0156 0.062941L18.1141 3.90234L14.2739 0ZM7.43681 5.02315L13.3058 3.50043L15.8724 6.10907L12.1294 9.7915L7.43681 5.02315ZM20.3207 6.14396L22.9285 3.57854L28.7723 5.19529L24.0031 9.88705L20.3207 6.14396ZM3.57825 13.072L5.19505 7.22912L9.88614 11.9975L6.14399 15.6799L3.57825 13.0713V13.072ZM26.2081 12.1294L30.9773 7.43614L32.4983 13.3056L29.8912 15.8718L26.2081 12.1294ZM14.3352 12.0331L18.0781 8.35068L21.7598 12.0938L18.0176 15.7762L14.3352 12.0331ZM8.35052 17.9215L12.0927 14.2391L15.7766 17.9822L12.0329 21.6646L8.35052 17.9215ZM20.2242 18.0178L23.9663 14.3354L27.6487 18.0785L23.9058 21.7609L20.2242 18.0178ZM3.50013 22.6944L6.10876 20.1275L9.7904 23.8713L5.02272 28.5623L3.50013 22.6944ZM14.2387 23.9062L17.9816 20.2238L21.664 23.9669L17.9219 27.6493L14.2387 23.9062ZM26.1116 24.0033L29.8545 20.3209L32.421 22.9287L30.805 28.7716L26.1116 24.0033ZM7.22773 30.8055L11.9962 26.1122L15.6801 29.8553L13.0715 32.4222L7.22773 30.8055ZM20.1276 29.8909L23.8698 26.2085L28.5617 30.9776L22.6934 32.4996L20.1276 29.8909Z" />
</svg>
