<svg width="42" height="42" viewBox="0 0 42 42"  xmlns="http://www.w3.org/2000/svg">
<circle cx="21" cy="21" r="21" />
<path d="M21 31.5C26.799 31.5 31.5 26.799 31.5 21C31.5 15.201 26.799 10.5 21 10.5C15.201 10.5 10.5 15.201 10.5 21C10.5 26.799 15.201 31.5 21 31.5Z" stroke="white" stroke-width="1.5" stroke-linecap="round" stroke-linejoin="round"/>
<path fill-rule="evenodd" clip-rule="evenodd" d="M16.8057 19.4094C16.8038 19.4106 16.8019 19.4117 16.7999 19.4128V22.5875C17.2184 22.8295 17.5 23.282 17.5 23.8002C17.5 24.5734 16.8732 25.2002 16.1 25.2002C15.3268 25.2002 14.7 24.5734 14.7 23.8002C14.7 23.282 14.9815 22.8296 15.3999 22.5875V19.4127C14.9815 19.1707 14.7 18.7182 14.7 18.2C14.7 17.4269 15.3268 16.8 16.1 16.8C16.8711 16.8 17.4966 17.4234 17.5 18.1937L20.2943 19.7905C20.5015 19.6693 20.7426 19.5999 20.9999 19.5999C21.2573 19.5999 21.4984 19.6693 21.7056 19.7905L24.5 18.1937C24.5035 17.4234 25.129 16.8 25.9 16.8C26.6732 16.8 27.3 17.4269 27.3 18.2C27.3 18.7183 27.0185 19.1707 26.6 19.4128V22.5875C27.0185 22.8296 27.3 23.282 27.3 23.8002C27.3 24.5734 26.6732 25.2002 25.9 25.2002C25.1268 25.2002 24.5 24.5734 24.5 23.8002C24.5 23.282 24.7815 22.8296 25.2 22.5875V19.4127C25.1981 19.4116 25.1962 19.4105 25.1943 19.4094L22.3999 21.0062C22.3965 21.7765 21.771 22.3999 20.9999 22.3999C20.2288 22.3999 19.6033 21.7765 19.6 21.0061L16.8057 19.4094Z" fill="white"/>
</svg>
