<svg width="26" height="26" viewBox="0 0 26 26" xmlns="http://www.w3.org/2000/svg">
<path d="M13 23.5C18.799 23.5 23.5 18.799 23.5 13C23.5 7.20101 18.799 2.5 13 2.5C7.20101 2.5 2.5 7.20101 2.5 13C2.5 18.799 7.20101 23.5 13 23.5Z" fill='none' stroke-width="1.5" stroke-linecap="round" stroke-linejoin="round"/>
<path fill-rule="evenodd" clip-rule="evenodd" d="M8.8057 11.4094C8.80378 11.4106 8.80186 11.4117 8.79994 11.4128V14.5875C9.21842 14.8295 9.49998 15.282 9.49998 15.8002C9.49998 16.5734 8.87318 17.2002 8.09998 17.2002C7.32678 17.2002 6.69998 16.5734 6.69998 15.8002C6.69998 15.282 6.9815 14.8296 7.39994 14.5875V11.4127C6.9815 11.1707 6.69998 10.7182 6.69998 10.2C6.69998 9.42685 7.32678 8.80005 8.09998 8.80005C8.87107 8.80005 9.49655 9.42343 9.49997 10.1937L12.2943 11.7905C12.5015 11.6693 12.7426 11.5999 12.9999 11.5999C13.2573 11.5999 13.4984 11.6693 13.7056 11.7905L16.5 10.1937C16.5035 9.42341 17.129 8.80005 17.9 8.80005C18.6732 8.80005 19.3 9.42685 19.3 10.2C19.3 10.7183 19.0185 11.1707 18.6 11.4128V14.5875C19.0185 14.8296 19.3 15.282 19.3 15.8002C19.3 16.5734 18.6732 17.2002 17.9 17.2002C17.1268 17.2002 16.5 16.5734 16.5 15.8002C16.5 15.282 16.7815 14.8296 17.2 14.5875V11.4127C17.1981 11.4116 17.1962 11.4105 17.1943 11.4094L14.3999 13.0062C14.3965 13.7765 13.771 14.3999 12.9999 14.3999C12.2288 14.3999 11.6033 13.7765 11.6 13.0061L8.8057 11.4094Z"/>
</svg>
