<svg width="269" height="212" viewBox="0 0 269 212" fill="none" xmlns="http://www.w3.org/2000/svg">
<rect width="269" height="212" rx="15"/>
<rect width="269" height="212" rx="15" fill="white" fill-opacity="0.15"/>
<line y1="167.75" x2="269" y2="167.75" stroke="white" stroke-opacity="0.38" stroke-width="0.5"/>
<line x1="135.25" y1="168" x2="135.25" y2="212" stroke="white" stroke-opacity="0.38" stroke-width="0.5"/>
<path d="M18.6961 32.4321H21.5569L24.469 38H27.4837L24.2537 32.0322C26.0173 31.3965 27.0427 29.7661 27.0427 27.8076C27.0427 24.9775 25.1253 23.2036 21.926 23.2036H16.0506V38H18.6961V32.4321ZM18.6961 25.3467H21.6287C23.3001 25.3467 24.3357 26.3105 24.3357 27.8691C24.3357 29.4688 23.3616 30.4019 21.6799 30.4019H18.6961V25.3467ZM36.5944 34.7495C36.3175 35.6519 35.4152 36.2466 34.2257 36.2466C32.5543 36.2466 31.4879 35.0776 31.4879 33.3345V33.1807H39.0861V32.3501C39.0861 29.0483 37.1583 26.9053 34.0719 26.9053C30.9342 26.9053 28.945 29.1714 28.945 32.6064C28.945 36.0723 30.9137 38.2153 34.1745 38.2153C36.7482 38.2153 38.6554 36.8003 38.9835 34.7495H36.5944ZM34.0822 28.8843C35.5485 28.8843 36.5329 29.9609 36.5841 31.499H31.5084C31.611 29.9814 32.6466 28.8843 34.0822 28.8843ZM55.9795 27.1309H53.4571L51.6216 35.4775H51.5601L49.4375 27.1309H46.9869L44.8643 35.4775H44.813L42.9776 27.1309H40.4141L43.357 38H46.023L48.1558 30.0532H48.2071L50.3501 38H53.0367L55.9795 27.1309ZM60.8041 38.1743C62.1987 38.1743 63.5624 37.4463 64.1879 36.2671H64.2392V38H66.7001V30.5146C66.7001 28.3306 64.9467 26.9053 62.2499 26.9053C59.4814 26.9053 57.7485 28.3613 57.6357 30.3916H60.0043C60.1684 29.4893 60.9374 28.9048 62.1474 28.9048C63.4086 28.9048 64.1777 29.561 64.1777 30.6992V31.4785L61.3066 31.6426C58.6611 31.8066 57.1742 32.9653 57.1742 34.8931C57.1742 36.8516 58.7021 38.1743 60.8041 38.1743ZM61.5732 36.2466C60.4657 36.2466 59.7275 35.6826 59.7275 34.7905C59.7275 33.9292 60.435 33.3755 61.6654 33.2935L64.1777 33.1396V33.9702C64.1777 35.2827 63.019 36.2466 61.5732 36.2466ZM69.2996 38H71.8528V31.6733C71.8528 30.1455 72.7244 29.2124 74.1702 29.2124C74.6009 29.2124 74.9905 29.2739 75.2059 29.356V27.0488C75.0213 27.0078 74.7342 26.9463 74.4061 26.9463C73.1243 26.9463 72.1707 27.7051 71.8016 29.0278H71.7503V27.1309H69.2996V38ZM80.7072 38.1743C82.2966 38.1743 83.5475 37.3643 84.1423 36.144H84.1833V38H86.6852V23.2036H84.132V28.9561H84.0705C83.4963 27.7563 82.2658 26.9463 80.7072 26.9463C77.9694 26.9463 76.1955 29.1201 76.1955 32.5552C76.1955 36.0107 77.9694 38.1743 80.7072 38.1743ZM81.4763 29.0483C83.0861 29.0483 84.1423 30.4326 84.1423 32.5654C84.1423 34.7188 83.0861 36.0825 81.4763 36.0825C79.8254 36.0825 78.8102 34.729 78.8102 32.5654C78.8102 30.4121 79.8356 29.0483 81.4763 29.0483ZM104.891 38V23.2036H101.836L97.3033 34.4932H97.2213L92.689 23.2036H89.6231V38H92.0123V27.5H92.0841L96.3599 38H98.1646L102.44 27.5H102.512V38H104.891ZM114.986 34.7495C114.709 35.6519 113.807 36.2466 112.618 36.2466C110.946 36.2466 109.88 35.0776 109.88 33.3345V33.1807H117.478V32.3501C117.478 29.0483 115.55 26.9053 112.464 26.9053C109.326 26.9053 107.337 29.1714 107.337 32.6064C107.337 36.0723 109.306 38.2153 112.566 38.2153C115.14 38.2153 117.047 36.8003 117.375 34.7495H114.986ZM112.474 28.8843C113.94 28.8843 114.925 29.9609 114.976 31.499H109.9C110.003 29.9814 111.039 28.8843 112.474 28.8843ZM133.29 27.2949H133.392L136.417 38H138.909L142.877 23.2036H140.129L137.566 34.4111H137.484L134.51 23.2036H132.172L129.198 34.4111H129.116L126.553 23.2036H123.805L127.773 38H130.265L133.29 27.2949ZM148.522 38.2153C151.711 38.2153 153.782 36.0928 153.782 32.5654C153.782 29.0483 151.691 26.9053 148.522 26.9053C145.354 26.9053 143.262 29.0586 143.262 32.5654C143.262 36.0928 145.333 38.2153 148.522 38.2153ZM148.522 36.1953C146.902 36.1953 145.856 34.8828 145.856 32.5654C145.856 30.2583 146.912 28.9355 148.522 28.9355C150.142 28.9355 151.188 30.2583 151.188 32.5654C151.188 34.8828 150.142 36.1953 148.522 36.1953ZM165.6 27.1309H163.047V33.4165C163.047 34.9956 162.134 36.0415 160.658 36.0415C159.222 36.0415 158.463 35.2007 158.463 33.6421V27.1309H155.91V34.1548C155.91 36.667 157.407 38.1948 159.766 38.1948C161.417 38.1948 162.514 37.436 163.088 36.1133H163.139V38H165.6V27.1309ZM168.302 38H170.855V23.2036H168.302V38ZM177.628 38.1743C179.218 38.1743 180.469 37.3643 181.063 36.144H181.104V38H183.606V23.2036H181.053V28.9561H180.991C180.417 27.7563 179.187 26.9463 177.628 26.9463C174.89 26.9463 173.116 29.1201 173.116 32.5552C173.116 36.0107 174.89 38.1743 177.628 38.1743ZM178.397 29.0483C180.007 29.0483 181.063 30.4326 181.063 32.5654C181.063 34.7188 180.007 36.0825 178.397 36.0825C176.746 36.0825 175.731 34.729 175.731 32.5654C175.731 30.4121 176.757 29.0483 178.397 29.0483ZM200.648 35.7646H193.932V23.2036H191.287V38H200.648V35.7646ZM204.161 25.4902C204.94 25.4902 205.555 24.8647 205.555 24.106C205.555 23.3369 204.94 22.7217 204.161 22.7217C203.381 22.7217 202.756 23.3369 202.756 24.106C202.756 24.8647 203.381 25.4902 204.161 25.4902ZM202.889 38H205.442V27.1309H202.889V38ZM210.78 31.6631H210.749V23.2036H208.196V38H210.749V34.2266L211.61 33.355L215.045 38H217.998L213.466 31.8066L217.814 27.1309H214.871L210.78 31.6631ZM226.237 34.7495C225.961 35.6519 225.058 36.2466 223.869 36.2466C222.197 36.2466 221.131 35.0776 221.131 33.3345V33.1807H228.729V32.3501C228.729 29.0483 226.801 26.9053 223.715 26.9053C220.577 26.9053 218.588 29.1714 218.588 32.6064C218.588 36.0723 220.557 38.2153 223.818 38.2153C226.391 38.2153 228.299 36.8003 228.627 34.7495H226.237ZM223.725 28.8843C225.192 28.8843 226.176 29.9609 226.227 31.499H221.152C221.254 29.9814 222.29 28.8843 223.725 28.8843ZM236.369 24.5879V27.1309H234.81V29.0996H236.369V35.1084C236.369 37.2207 237.291 38.0513 239.64 38.0513C240.183 38.0513 240.686 38.0103 240.962 37.9487V36.0005C240.798 36.0312 240.47 36.0518 240.234 36.0518C239.332 36.0518 238.922 35.6416 238.922 34.7495V29.0996H240.973V27.1309H238.922V24.5879H236.369ZM247.858 38.2153C251.047 38.2153 253.118 36.0928 253.118 32.5654C253.118 29.0483 251.027 26.9053 247.858 26.9053C244.69 26.9053 242.598 29.0586 242.598 32.5654C242.598 36.0928 244.669 38.2153 247.858 38.2153ZM247.858 36.1953C246.238 36.1953 245.192 34.8828 245.192 32.5654C245.192 30.2583 246.248 28.9355 247.858 28.9355C249.478 28.9355 250.524 30.2583 250.524 32.5654C250.524 34.8828 249.478 36.1953 247.858 36.1953ZM24.687 58.8677C24.81 61.5747 27.0761 63.2461 30.5009 63.2461C34.059 63.2461 36.2841 61.4619 36.2841 58.6318C36.2841 56.4375 34.9819 55.1865 31.8647 54.5405L30.2651 54.2124C28.4194 53.8228 27.6811 53.1768 27.6811 52.1719C27.6811 50.9312 28.8501 50.1519 30.4907 50.1519C32.1826 50.1519 33.3515 50.9927 33.4746 52.3872H36.0073C35.9458 49.7417 33.7822 47.9575 30.5112 47.9575C27.3017 47.9575 25.0151 49.7212 25.0151 52.3257C25.0151 54.4893 26.3994 55.8838 29.3628 56.4888L30.9521 56.8169C32.8798 57.2168 33.6181 57.873 33.6181 58.9395C33.6181 60.1699 32.3774 61.0518 30.5932 61.0518C28.7475 61.0518 27.4145 60.2314 27.2197 58.8677H24.687ZM45.7435 59.7495C45.4666 60.6519 44.5643 61.2466 43.3748 61.2466C41.7035 61.2466 40.6371 60.0776 40.6371 58.3345V58.1807H48.2352V57.3501C48.2352 54.0483 46.3075 51.9053 43.221 51.9053C40.0833 51.9053 38.0941 54.1714 38.0941 57.6064C38.0941 61.0723 40.0628 63.2153 43.3236 63.2153C45.8973 63.2153 47.8045 61.8003 48.1327 59.7495H45.7435ZM43.2313 53.8843C44.6976 53.8843 45.682 54.9609 45.7332 56.499H40.6576C40.7601 54.9814 41.7957 53.8843 43.2313 53.8843ZM50.4245 63H52.9778V56.7041C52.9778 55.1455 53.9109 54.0894 55.3772 54.0894C56.8332 54.0894 57.551 54.9507 57.551 56.4888V63H60.1042V55.9761C60.1042 53.4639 58.7405 51.9258 56.341 51.9258C54.6697 51.9258 53.511 52.7051 52.9265 53.9971H52.8752V52.1309H50.4245V63ZM66.754 63.1743C68.3434 63.1743 69.5943 62.3643 70.1891 61.144H70.2301V63H72.732V48.2036H70.1788V53.9561H70.1173C69.5431 52.7563 68.3126 51.9463 66.754 51.9463C64.0162 51.9463 62.2423 54.1201 62.2423 57.5552C62.2423 61.0107 64.0162 63.1743 66.754 63.1743ZM67.5231 54.0483C69.1329 54.0483 70.1891 55.4326 70.1891 57.5654C70.1891 59.7188 69.1329 61.0825 67.5231 61.0825C65.8722 61.0825 64.857 59.729 64.857 57.5654C64.857 55.4121 65.8824 54.0483 67.5231 54.0483ZM87.2108 63V57.1655L92.3993 48.2036H89.518L85.9393 54.6431H85.8778L82.2889 48.2036H79.3871L84.5756 57.1655V63H87.2108ZM96.9265 63.2153C100.115 63.2153 102.187 61.0928 102.187 57.5654C102.187 54.0483 100.095 51.9053 96.9265 51.9053C93.7581 51.9053 91.6663 54.0586 91.6663 57.5654C91.6663 61.0928 93.7376 63.2153 96.9265 63.2153ZM96.9265 61.1953C95.3064 61.1953 94.2605 59.8828 94.2605 57.5654C94.2605 55.2583 95.3167 53.9355 96.9265 53.9355C98.5466 53.9355 99.5925 55.2583 99.5925 57.5654C99.5925 59.8828 98.5466 61.1953 96.9265 61.1953ZM114.005 52.1309H111.451V58.4165C111.451 59.9956 110.539 61.0415 109.062 61.0415C107.627 61.0415 106.868 60.2007 106.868 58.6421V52.1309H104.315V59.1548C104.315 61.667 105.812 63.1948 108.17 63.1948C109.821 63.1948 110.918 62.436 111.492 61.1133H111.544V63H114.005V52.1309ZM124.187 63V52.623H124.279L131.631 63H133.908V48.2036H131.365V58.5703H131.272L123.931 48.2036H121.634V63H124.187ZM141.614 63.2153C144.803 63.2153 146.874 61.0928 146.874 57.5654C146.874 54.0483 144.782 51.9053 141.614 51.9053C138.445 51.9053 136.353 54.0586 136.353 57.5654C136.353 61.0928 138.425 63.2153 141.614 63.2153ZM141.614 61.1953C139.993 61.1953 138.948 59.8828 138.948 57.5654C138.948 55.2583 140.004 53.9355 141.614 53.9355C143.234 53.9355 144.28 55.2583 144.28 57.5654C144.28 59.8828 143.234 61.1953 141.614 61.1953ZM149.76 49.5879V52.1309H148.202V54.0996H149.76V60.1084C149.76 62.2207 150.683 63.0513 153.031 63.0513C153.575 63.0513 154.077 63.0103 154.354 62.9487V61.0005C154.19 61.0312 153.862 61.0518 153.626 61.0518C152.724 61.0518 152.314 60.6416 152.314 59.7495V54.0996H154.364V52.1309H152.314V49.5879H149.76ZM157.979 50.4902C158.758 50.4902 159.374 49.8647 159.374 49.106C159.374 48.3369 158.758 47.7217 157.979 47.7217C157.2 47.7217 156.574 48.3369 156.574 49.106C156.574 49.8647 157.2 50.4902 157.979 50.4902ZM156.708 63H159.261V52.1309H156.708V63ZM162.65 63H165.203V54.0996H167.336V52.1616H165.162V51.2695C165.162 50.3877 165.603 49.9263 166.577 49.9263C166.874 49.9263 167.172 49.957 167.387 49.9878V48.2036C167.069 48.1421 166.516 48.0908 166.013 48.0908C163.655 48.0908 162.65 49.0854 162.65 51.1978V52.1616H161.163V54.0996H162.65V63ZM170.889 50.4902C171.668 50.4902 172.284 49.8647 172.284 49.106C172.284 48.3369 171.668 47.7217 170.889 47.7217C170.11 47.7217 169.484 48.3369 169.484 49.106C169.484 49.8647 170.11 50.4902 170.889 50.4902ZM169.618 63H172.171V52.1309H169.618V63ZM184.429 56.0068C184.255 53.7202 182.481 51.9053 179.61 51.9053C176.452 51.9053 174.401 54.0894 174.401 57.5654C174.401 61.0928 176.452 63.2153 179.631 63.2153C182.358 63.2153 184.235 61.6157 184.44 59.1855H182.03C181.794 60.416 180.953 61.1543 179.661 61.1543C178.041 61.1543 176.995 59.8418 176.995 57.5654C176.995 55.3301 178.031 53.9766 179.641 53.9766C181.005 53.9766 181.815 54.8481 182.02 56.0068H184.429ZM189.705 63.1743C191.1 63.1743 192.464 62.4463 193.089 61.2671H193.14V63H195.601V55.5146C195.601 53.3306 193.848 51.9053 191.151 51.9053C188.382 51.9053 186.65 53.3613 186.537 55.3916H188.905C189.069 54.4893 189.839 53.9048 191.048 53.9048C192.31 53.9048 193.079 54.561 193.079 55.6992V56.4785L190.208 56.6426C187.562 56.8066 186.075 57.9653 186.075 59.8931C186.075 61.8516 187.603 63.1743 189.705 63.1743ZM190.474 61.2466C189.367 61.2466 188.629 60.6826 188.629 59.7905C188.629 58.9292 189.336 58.3755 190.567 58.2935L193.079 58.1396V58.9702C193.079 60.2827 191.92 61.2466 190.474 61.2466ZM198.908 49.5879V52.1309H197.35V54.0996H198.908V60.1084C198.908 62.2207 199.831 63.0513 202.179 63.0513C202.723 63.0513 203.225 63.0103 203.502 62.9487V61.0005C203.338 61.0312 203.01 61.0518 202.774 61.0518C201.872 61.0518 201.461 60.6416 201.461 59.7495V54.0996H203.512V52.1309H201.461V49.5879H198.908ZM207.127 50.4902C207.906 50.4902 208.521 49.8647 208.521 49.106C208.521 48.3369 207.906 47.7217 207.127 47.7217C206.348 47.7217 205.722 48.3369 205.722 49.106C205.722 49.8647 206.348 50.4902 207.127 50.4902ZM205.855 63H208.409V52.1309H205.855V63ZM215.899 63.2153C219.088 63.2153 221.159 61.0928 221.159 57.5654C221.159 54.0483 219.068 51.9053 215.899 51.9053C212.731 51.9053 210.639 54.0586 210.639 57.5654C210.639 61.0928 212.71 63.2153 215.899 63.2153ZM215.899 61.1953C214.279 61.1953 213.233 59.8828 213.233 57.5654C213.233 55.2583 214.289 53.9355 215.899 53.9355C217.519 53.9355 218.565 55.2583 218.565 57.5654C218.565 59.8828 217.519 61.1953 215.899 61.1953ZM223.339 63H225.892V56.7041C225.892 55.1455 226.825 54.0894 228.291 54.0894C229.747 54.0894 230.465 54.9507 230.465 56.4888V63H233.018V55.9761C233.018 53.4639 231.654 51.9258 229.255 51.9258C227.584 51.9258 226.425 52.7051 225.84 53.9971H225.789V52.1309H223.339V63ZM235.413 55.248C235.413 56.8579 236.459 57.8833 238.54 58.3447L240.345 58.7446C241.483 59.001 241.873 59.3701 241.873 60.0264C241.873 60.8364 241.104 61.3491 239.863 61.3491C238.571 61.3491 237.843 60.8159 237.648 59.7598H235.136C235.341 61.8618 237.022 63.2153 239.863 63.2153C242.529 63.2153 244.416 61.8311 244.416 59.7803C244.416 58.2012 243.544 57.3296 241.288 56.8271L239.483 56.4272C238.345 56.1709 237.894 55.7402 237.894 55.1147C237.894 54.3149 238.643 53.7817 239.771 53.7817C240.95 53.7817 241.678 54.4072 241.78 55.3916H244.159C244.098 53.3306 242.416 51.9053 239.771 51.9053C237.146 51.9053 235.413 53.2588 235.413 55.248Z" fill="white" fill-opacity="0.87"/>
<path d="M15.8708 182.204V197H20.8439C25.2429 197 27.8269 194.262 27.8269 189.597C27.8269 184.941 25.2326 182.204 20.8439 182.204H15.8708ZM17.7165 183.865H20.7209C24.0842 183.865 25.9401 185.916 25.9401 189.617C25.9401 193.288 24.0739 195.339 20.7209 195.339H17.7165V183.865ZM34.8063 197.185C37.7492 197.185 39.7384 195.062 39.7384 191.668C39.7384 188.264 37.7492 186.151 34.8063 186.151C31.8532 186.151 29.8639 188.264 29.8639 191.668C29.8639 195.062 31.8532 197.185 34.8063 197.185ZM34.8063 195.616C32.9196 195.616 31.6789 194.18 31.6789 191.668C31.6789 189.156 32.9196 187.72 34.8063 187.72C36.693 187.72 37.9235 189.156 37.9235 191.668C37.9235 194.18 36.693 195.616 34.8063 195.616ZM42.0831 197H43.8673V190.725C43.8673 188.92 44.9645 187.73 46.6461 187.73C48.2867 187.73 49.0968 188.674 49.0968 190.396V197H50.881V190.079C50.881 187.659 49.5275 186.151 47.1896 186.151C45.5387 186.151 44.4005 186.89 43.8058 188.038H43.7648V186.336H42.0831V197ZM54.4151 187.423L55.8199 182.204H53.9229L52.9283 187.423H54.4151ZM59.4053 183.762V186.336H57.816V187.802H59.4053V194.231C59.4053 196.282 60.1641 197.082 62.1226 197.082C62.543 197.082 63.0352 197.051 63.2505 197V195.503C63.1275 195.523 62.7173 195.554 62.5122 195.554C61.5996 195.554 61.1895 195.113 61.1895 194.139V187.802H63.2608V186.336H61.1895V183.762H59.4053ZM80.4497 197H82.3877L76.9326 182.204H75.1074L69.6523 197H71.5903L73.0771 192.765H78.9629L80.4497 197ZM75.9892 184.449H76.0507L78.4194 191.196H73.6206L75.9892 184.449ZM84.435 197H86.2192V182.204H84.435V197ZM89.2611 197H91.0453V182.204H89.2611V197ZM98.4144 197.185C101.357 197.185 103.347 195.062 103.347 191.668C103.347 188.264 101.357 186.151 98.4144 186.151C95.4613 186.151 93.472 188.264 93.472 191.668C93.472 195.062 95.4613 197.185 98.4144 197.185ZM98.4144 195.616C96.5277 195.616 95.287 194.18 95.287 191.668C95.287 189.156 96.5277 187.72 98.4144 187.72C100.301 187.72 101.532 189.156 101.532 191.668C101.532 194.18 100.301 195.616 98.4144 195.616ZM119.257 186.336H117.493L115.361 195.011H115.32L112.9 186.336H111.177L108.767 195.011H108.726L106.594 186.336H104.82L107.804 197H109.618L112.018 188.746H112.059L114.469 197H116.283L119.257 186.336Z" fill="#0085FF"/>
<path d="M188.472 197H190.41L184.955 182.204H183.13L177.675 197H179.613L181.1 192.765H186.986L188.472 197ZM184.012 184.449H184.073L186.442 191.196H181.643L184.012 184.449ZM192.456 197H194.24V182.204H192.456V197ZM197.281 197H199.065V182.204H197.281V197ZM206.433 197.185C209.375 197.185 211.365 195.062 211.365 191.668C211.365 188.264 209.375 186.151 206.433 186.151C203.479 186.151 201.49 188.264 201.49 191.668C201.49 195.062 203.479 197.185 206.433 197.185ZM206.433 195.616C204.546 195.616 203.305 194.18 203.305 191.668C203.305 189.156 204.546 187.72 206.433 187.72C208.319 187.72 209.55 189.156 209.55 191.668C209.55 194.18 208.319 195.616 206.433 195.616ZM227.274 186.336H225.51L223.377 195.011H223.336L220.916 186.336H219.194L216.784 195.011H216.743L214.61 186.336H212.836L215.82 197H217.635L220.034 188.746H220.075L222.485 197H224.3L227.274 186.336Z" fill="#0085FF"/>
<path d="M24.28 91V82.1797H24.3504L30.5222 91H31.8894V79.7266H30.4988V88.5781H30.4285L24.2566 79.7266H22.8894V91H24.28ZM37.7716 91.1406C40.0138 91.1406 41.5294 89.5234 41.5294 86.9375C41.5294 84.3438 40.0138 82.7344 37.7716 82.7344C35.5216 82.7344 34.006 84.3438 34.006 86.9375C34.006 89.5234 35.5216 91.1406 37.7716 91.1406ZM37.7716 89.9453C36.3341 89.9453 35.3888 88.8516 35.3888 86.9375C35.3888 85.0234 36.3341 83.9297 37.7716 83.9297C39.2091 83.9297 40.1466 85.0234 40.1466 86.9375C40.1466 88.8516 39.2091 89.9453 37.7716 89.9453ZM43.8804 80.9141V82.875H42.6695V83.9922H43.8804V88.8906C43.8804 90.4531 44.4585 91.0625 45.9507 91.0625C46.271 91.0625 46.646 91.0391 46.8101 91V89.8594C46.7163 89.875 46.4038 89.8984 46.2476 89.8984C45.5523 89.8984 45.2398 89.5625 45.2398 88.8203V83.9922H46.8179V82.875H45.2398V80.9141H43.8804ZM49.5595 81.4297C50.0361 81.4297 50.4111 81.0469 50.4111 80.5781C50.4111 80.1016 50.0361 79.7266 49.5595 79.7266C49.0907 79.7266 48.7079 80.1016 48.7079 80.5781C48.7079 81.0469 49.0907 81.4297 49.5595 81.4297ZM48.8798 91H50.2392V82.875H48.8798V91ZM53.0511 91H54.4105V83.9922H56.0667V82.875H54.4026V81.9766C54.4026 81.1719 54.7542 80.7812 55.4886 80.7812C55.7151 80.7812 55.9417 80.8047 56.1058 80.8281V79.7266C55.9105 79.6953 55.5823 79.6641 55.2776 79.6641C53.7776 79.6641 53.0511 80.4062 53.0511 81.9688V82.875H51.9183V83.9922H53.0511V91ZM58.7614 81.4297C59.238 81.4297 59.613 81.0469 59.613 80.5781C59.613 80.1016 59.238 79.7266 58.7614 79.7266C58.2927 79.7266 57.9099 80.1016 57.9099 80.5781C57.9099 81.0469 58.2927 81.4297 58.7614 81.4297ZM58.0817 91H59.4411V82.875H58.0817V91ZM68.5655 85.5391C68.3936 84.0781 67.1827 82.7344 65.1514 82.7344C62.9093 82.7344 61.4171 84.375 61.4171 86.9375C61.4171 89.5547 62.9171 91.1406 65.1671 91.1406C67.0108 91.1406 68.3702 90 68.5811 88.3828H67.2452C67.0108 89.3594 66.2843 89.9453 65.1749 89.9453C63.7686 89.9453 62.7999 88.8281 62.7999 86.9375C62.7999 85.0938 63.753 83.9297 65.1593 83.9297C66.3546 83.9297 67.0421 84.6562 67.2374 85.5391H68.5655ZM72.7446 91.1406C73.8383 91.1406 74.8696 90.5312 75.354 89.6016H75.3852V91H76.6743V85.3828C76.6743 83.7656 75.4711 82.7344 73.5649 82.7344C71.643 82.7344 70.4399 83.8125 70.3461 85.2188H71.6586C71.8305 84.4219 72.4868 83.9297 73.5336 83.9297C74.6586 83.9297 75.3149 84.5234 75.3149 85.5156V86.1953L72.9868 86.3281C71.1118 86.4375 70.0415 87.3125 70.0415 88.7031C70.0415 90.1641 71.1274 91.1406 72.7446 91.1406ZM73.0493 89.9844C72.0727 89.9844 71.4243 89.4766 71.4243 88.7031C71.4243 87.9375 72.0493 87.4531 73.143 87.3828L75.3149 87.25V87.9141C75.3149 89.0859 74.3305 89.9844 73.0493 89.9844ZM79.3768 80.9141V82.875H78.1659V83.9922H79.3768V88.8906C79.3768 90.4531 79.9549 91.0625 81.4471 91.0625C81.7674 91.0625 82.1424 91.0391 82.3065 91V89.8594C82.2127 89.875 81.9002 89.8984 81.744 89.8984C81.0487 89.8984 80.7362 89.5625 80.7362 88.8203V83.9922H82.3143V82.875H80.7362V80.9141H79.3768ZM85.0559 81.4297C85.5324 81.4297 85.9074 81.0469 85.9074 80.5781C85.9074 80.1016 85.5324 79.7266 85.0559 79.7266C84.5871 79.7266 84.2043 80.1016 84.2043 80.5781C84.2043 81.0469 84.5871 81.4297 85.0559 81.4297ZM84.3762 91H85.7356V82.875H84.3762V91ZM91.4772 91.1406C93.7193 91.1406 95.235 89.5234 95.235 86.9375C95.235 84.3438 93.7193 82.7344 91.4772 82.7344C89.2272 82.7344 87.7115 84.3438 87.7115 86.9375C87.7115 89.5234 89.2272 91.1406 91.4772 91.1406ZM91.4772 89.9453C90.0397 89.9453 89.0943 88.8516 89.0943 86.9375C89.0943 85.0234 90.0397 83.9297 91.4772 83.9297C92.9147 83.9297 93.8522 85.0234 93.8522 86.9375C93.8522 88.8516 92.9147 89.9453 91.4772 89.9453ZM97.1484 91H98.5078V86.2188C98.5078 84.8438 99.3438 83.9375 100.625 83.9375C101.875 83.9375 102.492 84.6562 102.492 85.9688V91H103.852V85.7266C103.852 83.8828 102.82 82.7344 101.039 82.7344C99.7812 82.7344 98.9141 83.2969 98.4609 84.1719H98.4297V82.875H97.1484V91ZM109.944 91H111.303V85.9062C111.303 84.7812 112.085 83.9375 113.163 83.9375C114.171 83.9375 114.827 84.5781 114.827 85.5547V91H116.186V85.8359C116.186 84.7344 116.944 83.9375 118.022 83.9375C119.093 83.9375 119.71 84.5938 119.71 85.7031V91H121.069V85.3906C121.069 83.7812 120.03 82.7344 118.421 82.7344C117.28 82.7344 116.327 83.3125 115.874 84.2812H115.843C115.491 83.2969 114.671 82.7344 113.561 82.7344C112.468 82.7344 111.639 83.3125 111.257 84.1719H111.225V82.875H109.944V91ZM125.717 91.1406C126.811 91.1406 127.842 90.5312 128.326 89.6016H128.358V91H129.647V85.3828C129.647 83.7656 128.444 82.7344 126.537 82.7344C124.615 82.7344 123.412 83.8125 123.319 85.2188H124.631C124.803 84.4219 125.459 83.9297 126.506 83.9297C127.631 83.9297 128.287 84.5234 128.287 85.5156V86.1953L125.959 86.3281C124.084 86.4375 123.014 87.3125 123.014 88.7031C123.014 90.1641 124.1 91.1406 125.717 91.1406ZM126.022 89.9844C125.045 89.9844 124.397 89.4766 124.397 88.7031C124.397 87.9375 125.022 87.4531 126.115 87.3828L128.287 87.25V87.9141C128.287 89.0859 127.303 89.9844 126.022 89.9844ZM132.591 94.0391C134.06 94.0391 134.732 93.4688 135.427 91.5703L138.623 82.875H137.193L134.943 89.6406H134.919L132.669 82.875H131.216L134.216 91.0078L134.029 91.5781C133.716 92.5234 133.294 92.8906 132.537 92.8906C132.365 92.8906 132.154 92.8828 132.005 92.8516V93.9922C132.154 94.0234 132.427 94.0391 132.591 94.0391ZM144.801 81.4297C145.278 81.4297 145.653 81.0469 145.653 80.5781C145.653 80.1016 145.278 79.7266 144.801 79.7266C144.332 79.7266 143.95 80.1016 143.95 80.5781C143.95 81.0469 144.332 81.4297 144.801 81.4297ZM144.121 91H145.481V82.875H144.121V91ZM147.855 91H149.215V86.2188C149.215 84.8438 150.05 83.9375 151.332 83.9375C152.582 83.9375 153.199 84.6562 153.199 85.9688V91H154.558V85.7266C154.558 83.8828 153.527 82.7344 151.746 82.7344C150.488 82.7344 149.621 83.2969 149.168 84.1719H149.136V82.875H147.855V91ZM163.581 85.5391C163.409 84.0781 162.198 82.7344 160.167 82.7344C157.925 82.7344 156.433 84.375 156.433 86.9375C156.433 89.5547 157.933 91.1406 160.183 91.1406C162.026 91.1406 163.386 90 163.597 88.3828H162.261C162.026 89.3594 161.3 89.9453 160.191 89.9453C158.784 89.9453 157.816 88.8281 157.816 86.9375C157.816 85.0938 158.769 83.9297 160.175 83.9297C161.37 83.9297 162.058 84.6562 162.253 85.5391H163.581ZM165.456 91H166.815V79.7266H165.456V91ZM175.861 82.875H174.502V87.6484C174.502 89.0312 173.705 89.9375 172.385 89.9375C171.127 89.9375 170.51 89.2266 170.51 87.9062V82.875H169.15V88.1484C169.15 89.9922 170.189 91.1406 171.963 91.1406C173.213 91.1406 174.056 90.6172 174.541 89.6797H174.572V91H175.861V82.875ZM181.243 91.1406C182.415 91.1406 183.345 90.5625 183.868 89.625H183.892V91H185.189V79.7266H183.829V84.1953H183.798C183.314 83.3047 182.376 82.7344 181.212 82.7344C179.165 82.7344 177.767 84.3906 177.767 86.9375C177.767 89.4844 179.173 91.1406 181.243 91.1406ZM181.501 83.9297C182.9 83.9297 183.837 85.125 183.837 86.9375C183.837 88.7578 182.9 89.9453 181.501 89.9453C180.064 89.9453 179.157 88.7812 179.157 86.9375C179.157 85.1016 180.064 83.9297 181.501 83.9297ZM192.954 88.6719C192.727 89.4375 191.969 89.9609 190.938 89.9609C189.477 89.9609 188.563 88.9375 188.563 87.3828V87.3047H194.391V86.7891C194.391 84.3281 193.04 82.7344 190.844 82.7344C188.602 82.7344 187.165 84.4453 187.165 86.9688C187.165 89.5234 188.579 91.1406 190.907 91.1406C192.68 91.1406 194.055 90.0938 194.29 88.6719H192.954ZM190.821 83.9141C192.102 83.9141 192.954 84.8828 192.985 86.2422H188.571C188.657 84.8906 189.547 83.9141 190.821 83.9141ZM202.499 91.1406C203.593 91.1406 204.624 90.5312 205.109 89.6016H205.14V91H206.429V85.3828C206.429 83.7656 205.226 82.7344 203.32 82.7344C201.398 82.7344 200.195 83.8125 200.101 85.2188H201.413C201.585 84.4219 202.242 83.9297 203.288 83.9297C204.413 83.9297 205.07 84.5234 205.07 85.5156V86.1953L202.742 86.3281C200.867 86.4375 199.796 87.3125 199.796 88.7031C199.796 90.1641 200.882 91.1406 202.499 91.1406ZM202.804 89.9844C201.828 89.9844 201.179 89.4766 201.179 88.7031C201.179 87.9375 201.804 87.4531 202.898 87.3828L205.07 87.25V87.9141C205.07 89.0859 204.085 89.9844 202.804 89.9844ZM208.764 91H210.124V79.7266H208.764V91ZM217.889 88.6719C217.662 89.4375 216.904 89.9609 215.873 89.9609C214.412 89.9609 213.498 88.9375 213.498 87.3828V87.3047H219.326V86.7891C219.326 84.3281 217.975 82.7344 215.779 82.7344C213.537 82.7344 212.1 84.4453 212.1 86.9688C212.1 89.5234 213.514 91.1406 215.842 91.1406C217.615 91.1406 218.99 90.0938 219.225 88.6719H217.889ZM215.756 83.9141C217.037 83.9141 217.889 84.8828 217.92 86.2422H213.506C213.592 84.8906 214.483 83.9141 215.756 83.9141ZM221.24 91H222.599V85.9375C222.599 84.7891 223.287 84.0312 224.341 84.0312C224.669 84.0312 224.959 84.0703 225.068 84.1094V82.7891C224.959 82.7734 224.755 82.7344 224.521 82.7344C223.568 82.7344 222.818 83.3047 222.552 84.2031H222.521V82.875H221.24V91ZM227.466 80.9141V82.875H226.255V83.9922H227.466V88.8906C227.466 90.4531 228.044 91.0625 229.536 91.0625C229.856 91.0625 230.231 91.0391 230.395 91V89.8594C230.302 89.875 229.989 89.8984 229.833 89.8984C229.138 89.8984 228.825 89.5625 228.825 88.8203V83.9922H230.403V82.875H228.825V80.9141H227.466ZM232.254 85.1172C232.254 86.2891 232.996 87 234.528 87.3672L235.817 87.6797C236.746 87.9062 237.067 88.2422 237.067 88.8281C237.067 89.5625 236.387 90.0312 235.285 90.0312C234.184 90.0312 233.559 89.5859 233.395 88.6562H232.035C232.192 90.1797 233.379 91.1406 235.285 91.1406C237.098 91.1406 238.434 90.1406 238.434 88.7266C238.434 87.5625 237.84 86.9219 236.2 86.5234L234.91 86.2109C234.004 85.9922 233.59 85.6094 233.59 85.0469C233.59 84.3359 234.246 83.8438 235.239 83.8438C236.239 83.8438 236.864 84.3672 236.965 85.2188H238.262C238.207 83.7812 237.02 82.7344 235.239 82.7344C233.481 82.7344 232.254 83.7266 232.254 85.1172ZM241.316 93.2422L242.386 89.2656H240.941L240.183 93.2422H241.316ZM42.1839 104.117C42.1839 105.289 42.9261 106 44.4573 106.367L45.7464 106.68C46.6761 106.906 46.9964 107.242 46.9964 107.828C46.9964 108.562 46.3167 109.031 45.2151 109.031C44.1136 109.031 43.4886 108.586 43.3245 107.656H41.9651C42.1214 109.18 43.3089 110.141 45.2151 110.141C47.0276 110.141 48.3636 109.141 48.3636 107.727C48.3636 106.562 47.7698 105.922 46.1292 105.523L44.8401 105.211C43.9339 104.992 43.5198 104.609 43.5198 104.047C43.5198 103.336 44.1761 102.844 45.1683 102.844C46.1683 102.844 46.7933 103.367 46.8948 104.219H48.1917C48.137 102.781 46.9495 101.734 45.1683 101.734C43.4105 101.734 42.1839 102.727 42.1839 104.117ZM53.6833 110.141C55.9255 110.141 57.4411 108.523 57.4411 105.938C57.4411 103.344 55.9255 101.734 53.6833 101.734C51.4333 101.734 49.9177 103.344 49.9177 105.938C49.9177 108.523 51.4333 110.141 53.6833 110.141ZM53.6833 108.945C52.2458 108.945 51.3005 107.852 51.3005 105.938C51.3005 104.023 52.2458 102.93 53.6833 102.93C55.1208 102.93 56.0583 104.023 56.0583 105.938C56.0583 107.852 55.1208 108.945 53.6833 108.945ZM66.0264 101.875H64.6671V106.648C64.6671 108.031 63.8702 108.938 62.5499 108.938C61.2921 108.938 60.6749 108.227 60.6749 106.906V101.875H59.3155V107.148C59.3155 108.992 60.3546 110.141 62.128 110.141C63.378 110.141 64.2218 109.617 64.7061 108.68H64.7374V110H66.0264V101.875ZM68.3305 110H69.6899V105.219C69.6899 103.844 70.5258 102.938 71.8071 102.938C73.0571 102.938 73.6743 103.656 73.6743 104.969V110H75.0337V104.727C75.0337 102.883 74.0024 101.734 72.2212 101.734C70.9633 101.734 70.0962 102.297 69.643 103.172H69.6118V101.875H68.3305V110ZM80.3846 110.141C81.5565 110.141 82.4862 109.562 83.0096 108.625H83.0331V110H84.3299V98.7266H82.9706V103.195H82.9393C82.4549 102.305 81.5174 101.734 80.3534 101.734C78.3065 101.734 76.9081 103.391 76.9081 105.938C76.9081 108.484 78.3143 110.141 80.3846 110.141ZM80.6424 102.93C82.0409 102.93 82.9784 104.125 82.9784 105.938C82.9784 107.758 82.0409 108.945 80.6424 108.945C79.2049 108.945 78.2987 107.781 78.2987 105.938C78.2987 104.102 79.2049 102.93 80.6424 102.93ZM86.5637 104.117C86.5637 105.289 87.3059 106 88.8371 106.367L90.1262 106.68C91.0559 106.906 91.3762 107.242 91.3762 107.828C91.3762 108.562 90.6965 109.031 89.5949 109.031C88.4934 109.031 87.8684 108.586 87.7043 107.656H86.3449C86.5012 109.18 87.6887 110.141 89.5949 110.141C91.4074 110.141 92.7434 109.141 92.7434 107.727C92.7434 106.562 92.1496 105.922 90.509 105.523L89.2199 105.211C88.3137 104.992 87.8996 104.609 87.8996 104.047C87.8996 103.336 88.5559 102.844 89.5481 102.844C90.5481 102.844 91.1731 103.367 91.2746 104.219H92.5715C92.5168 102.781 91.3293 101.734 89.5481 101.734C87.7903 101.734 86.5637 102.727 86.5637 104.117ZM95.6256 112.242L96.6959 108.266H95.2506L94.4928 112.242H95.6256ZM104.71 110.141C105.804 110.141 106.835 109.531 107.32 108.602H107.351V110H108.64V104.383C108.64 102.766 107.437 101.734 105.531 101.734C103.609 101.734 102.406 102.812 102.312 104.219H103.624C103.796 103.422 104.453 102.93 105.499 102.93C106.624 102.93 107.281 103.523 107.281 104.516V105.195L104.953 105.328C103.078 105.438 102.007 106.312 102.007 107.703C102.007 109.164 103.093 110.141 104.71 110.141ZM105.015 108.984C104.038 108.984 103.39 108.477 103.39 107.703C103.39 106.938 104.015 106.453 105.109 106.383L107.281 106.25V106.914C107.281 108.086 106.296 108.984 105.015 108.984ZM110.905 110H112.264V105.219C112.264 103.844 113.1 102.938 114.382 102.938C115.632 102.938 116.249 103.656 116.249 104.969V110H117.608V104.727C117.608 102.883 116.577 101.734 114.796 101.734C113.538 101.734 112.671 102.297 112.218 103.172H112.186V101.875H110.905V110ZM122.959 110.141C124.131 110.141 125.061 109.562 125.584 108.625H125.608V110H126.904V98.7266H125.545V103.195H125.514C125.029 102.305 124.092 101.734 122.928 101.734C120.881 101.734 119.483 103.391 119.483 105.938C119.483 108.484 120.889 110.141 122.959 110.141ZM123.217 102.93C124.615 102.93 125.553 104.125 125.553 105.938C125.553 107.758 124.615 108.945 123.217 108.945C121.779 108.945 120.873 107.781 120.873 105.938C120.873 104.102 121.779 102.93 123.217 102.93ZM133.849 100.43C134.325 100.43 134.7 100.047 134.7 99.5781C134.7 99.1016 134.325 98.7266 133.849 98.7266C133.38 98.7266 132.997 99.1016 132.997 99.5781C132.997 100.047 133.38 100.43 133.849 100.43ZM133.169 110H134.528V101.875H133.169V110ZM143.653 104.539C143.481 103.078 142.27 101.734 140.239 101.734C137.996 101.734 136.504 103.375 136.504 105.938C136.504 108.555 138.004 110.141 140.254 110.141C142.098 110.141 143.457 109 143.668 107.383H142.332C142.098 108.359 141.371 108.945 140.262 108.945C138.856 108.945 137.887 107.828 137.887 105.938C137.887 104.094 138.84 102.93 140.246 102.93C141.442 102.93 142.129 103.656 142.325 104.539H143.653ZM148.824 110.141C151.066 110.141 152.582 108.523 152.582 105.938C152.582 103.344 151.066 101.734 148.824 101.734C146.574 101.734 145.058 103.344 145.058 105.938C145.058 108.523 146.574 110.141 148.824 110.141ZM148.824 108.945C147.386 108.945 146.441 107.852 146.441 105.938C146.441 104.023 147.386 102.93 148.824 102.93C150.261 102.93 151.199 104.023 151.199 105.938C151.199 107.852 150.261 108.945 148.824 108.945ZM154.495 110H155.855V105.219C155.855 103.844 156.691 102.938 157.972 102.938C159.222 102.938 159.839 103.656 159.839 104.969V110H161.198V104.727C161.198 102.883 160.167 101.734 158.386 101.734C157.128 101.734 156.261 102.297 155.808 103.172H155.776V101.875H154.495V110ZM171.33 110.141C173.408 110.141 174.783 108.492 174.783 105.938C174.783 103.391 173.4 101.734 171.353 101.734C170.205 101.734 169.26 102.305 168.752 103.234H168.721V98.7266H167.361V110H168.658V108.625H168.689C169.213 109.562 170.142 110.141 171.33 110.141ZM171.064 102.93C172.502 102.93 173.392 104.094 173.392 105.938C173.392 107.797 172.502 108.945 171.064 108.945C169.689 108.945 168.713 107.75 168.713 105.938C168.713 104.133 169.689 102.93 171.064 102.93ZM179.079 110.141C180.173 110.141 181.204 109.531 181.689 108.602H181.72V110H183.009V104.383C183.009 102.766 181.806 101.734 179.9 101.734C177.978 101.734 176.775 102.812 176.681 104.219H177.993C178.165 103.422 178.822 102.93 179.868 102.93C180.993 102.93 181.65 103.523 181.65 104.516V105.195L179.322 105.328C177.447 105.438 176.376 106.312 176.376 107.703C176.376 109.164 177.462 110.141 179.079 110.141ZM179.384 108.984C178.407 108.984 177.759 108.477 177.759 107.703C177.759 106.938 178.384 106.453 179.478 106.383L181.65 106.25V106.914C181.65 108.086 180.665 108.984 179.384 108.984ZM188.352 110.141C189.524 110.141 190.454 109.562 190.977 108.625H191.001V110H192.297V98.7266H190.938V103.195H190.907C190.422 102.305 189.485 101.734 188.321 101.734C186.274 101.734 184.876 103.391 184.876 105.938C184.876 108.484 186.282 110.141 188.352 110.141ZM188.61 102.93C190.008 102.93 190.946 104.125 190.946 105.938C190.946 107.758 190.008 108.945 188.61 108.945C187.172 108.945 186.266 107.781 186.266 105.938C186.266 104.102 187.172 102.93 188.61 102.93ZM198.023 113.062C200.266 113.062 201.695 111.773 201.695 109.836V101.875H200.398V103.242H200.375C199.836 102.297 198.883 101.734 197.734 101.734C195.633 101.734 194.273 103.359 194.273 105.906C194.273 108.43 195.633 110.062 197.703 110.062C198.844 110.062 199.805 109.484 200.305 108.602H200.336V109.883C200.336 111.094 199.484 111.906 198.078 111.906C197.062 111.906 196.258 111.414 195.992 110.672H194.594C194.82 112.055 196.234 113.062 198.023 113.062ZM197.977 108.867C196.578 108.867 195.664 107.727 195.664 105.906C195.664 104.086 196.578 102.93 197.977 102.93C199.391 102.93 200.336 104.117 200.336 105.906C200.336 107.695 199.391 108.867 197.977 108.867ZM209.398 107.672C209.171 108.438 208.413 108.961 207.382 108.961C205.921 108.961 205.007 107.938 205.007 106.383V106.305H210.835V105.789C210.835 103.328 209.484 101.734 207.288 101.734C205.046 101.734 203.609 103.445 203.609 105.969C203.609 108.523 205.023 110.141 207.351 110.141C209.124 110.141 210.499 109.094 210.734 107.672H209.398ZM207.265 102.914C208.546 102.914 209.398 103.883 209.429 105.242H205.015C205.101 103.891 205.992 102.914 207.265 102.914ZM212.608 104.117C212.608 105.289 213.35 106 214.882 106.367L216.171 106.68C217.1 106.906 217.421 107.242 217.421 107.828C217.421 108.562 216.741 109.031 215.639 109.031C214.538 109.031 213.913 108.586 213.749 107.656H212.389C212.546 109.18 213.733 110.141 215.639 110.141C217.452 110.141 218.788 109.141 218.788 107.727C218.788 106.562 218.194 105.922 216.553 105.523L215.264 105.211C214.358 104.992 213.944 104.609 213.944 104.047C213.944 103.336 214.6 102.844 215.593 102.844C216.593 102.844 217.218 103.367 217.319 104.219H218.616C218.561 102.781 217.374 101.734 215.593 101.734C213.835 101.734 212.608 102.727 212.608 104.117ZM221.889 110.078C222.389 110.078 222.779 109.688 222.779 109.188C222.779 108.688 222.389 108.297 221.889 108.297C221.389 108.297 220.998 108.688 220.998 109.188C220.998 109.688 221.389 110.078 221.889 110.078ZM40.8642 129V118.992H44.4189V117.727H35.9032V118.992H39.4579V129H40.8642ZM46.3011 129H47.6605V124.266C47.6605 122.859 48.4964 121.938 49.848 121.938C51.1214 121.938 51.7698 122.711 51.7698 124V129H53.1292V123.75C53.1292 121.938 52.0511 120.734 50.2698 120.734C49.0355 120.734 48.1448 121.266 47.6917 122.172H47.6605V117.727H46.3011V129ZM60.7849 126.672C60.5583 127.438 59.8005 127.961 58.7692 127.961C57.3083 127.961 56.3942 126.938 56.3942 125.383V125.305H62.2224V124.789C62.2224 122.328 60.8708 120.734 58.6755 120.734C56.4333 120.734 54.9958 122.445 54.9958 124.969C54.9958 127.523 56.4099 129.141 58.738 129.141C60.5114 129.141 61.8864 128.094 62.1208 126.672H60.7849ZM58.652 121.914C59.9333 121.914 60.7849 122.883 60.8161 124.242H56.402C56.488 122.891 57.3786 121.914 58.652 121.914ZM63.9952 123.117C63.9952 124.289 64.7374 125 66.2686 125.367L67.5577 125.68C68.4874 125.906 68.8077 126.242 68.8077 126.828C68.8077 127.562 68.128 128.031 67.0264 128.031C65.9249 128.031 65.2999 127.586 65.1358 126.656H63.7764C63.9327 128.18 65.1202 129.141 67.0264 129.141C68.8389 129.141 70.1749 128.141 70.1749 126.727C70.1749 125.562 69.5811 124.922 67.9405 124.523L66.6514 124.211C65.7452 123.992 65.3311 123.609 65.3311 123.047C65.3311 122.336 65.9874 121.844 66.9796 121.844C67.9796 121.844 68.6046 122.367 68.7061 123.219H70.003C69.9483 121.781 68.7608 120.734 66.9796 120.734C65.2218 120.734 63.9952 121.727 63.9952 123.117ZM77.518 126.672C77.2915 127.438 76.5337 127.961 75.5024 127.961C74.0415 127.961 73.1274 126.938 73.1274 125.383V125.305H78.9555V124.789C78.9555 122.328 77.604 120.734 75.4087 120.734C73.1665 120.734 71.729 122.445 71.729 124.969C71.729 127.523 73.143 129.141 75.4712 129.141C77.2446 129.141 78.6196 128.094 78.854 126.672H77.518ZM75.3852 121.914C76.6665 121.914 77.518 122.883 77.5493 124.242H73.1352C73.2212 122.891 74.1118 121.914 75.3852 121.914ZM91.4387 123.539C91.2668 122.078 90.0559 120.734 88.0246 120.734C85.7825 120.734 84.2903 122.375 84.2903 124.938C84.2903 127.555 85.7903 129.141 88.0403 129.141C89.884 129.141 91.2434 128 91.4543 126.383H90.1184C89.884 127.359 89.1575 127.945 88.0481 127.945C86.6418 127.945 85.6731 126.828 85.6731 124.938C85.6731 123.094 86.6262 121.93 88.0325 121.93C89.2278 121.93 89.9153 122.656 90.1106 123.539H91.4387ZM95.6178 129.141C96.7115 129.141 97.7428 128.531 98.2272 127.602H98.2584V129H99.5475V123.383C99.5475 121.766 98.3443 120.734 96.4381 120.734C94.5162 120.734 93.3131 121.812 93.2193 123.219H94.5318C94.7037 122.422 95.36 121.93 96.4068 121.93C97.5318 121.93 98.1881 122.523 98.1881 123.516V124.195L95.86 124.328C93.985 124.438 92.9147 125.312 92.9147 126.703C92.9147 128.164 94.0006 129.141 95.6178 129.141ZM95.9225 127.984C94.9459 127.984 94.2975 127.477 94.2975 126.703C94.2975 125.938 94.9225 125.453 96.0162 125.383L98.1881 125.25V125.914C98.1881 127.086 97.2037 127.984 95.9225 127.984ZM101.812 129H103.172V124.219C103.172 122.844 104.008 121.938 105.289 121.938C106.539 121.938 107.156 122.656 107.156 123.969V129H108.516V123.727C108.516 121.883 107.484 120.734 105.703 120.734C104.445 120.734 103.578 121.297 103.125 122.172H103.094V120.875H101.812V129ZM118.647 129.141C120.725 129.141 122.1 127.492 122.1 124.938C122.1 122.391 120.718 120.734 118.671 120.734C117.522 120.734 116.577 121.305 116.069 122.234H116.038V117.727H114.678V129H115.975V127.625H116.007C116.53 128.562 117.46 129.141 118.647 129.141ZM118.382 121.93C119.819 121.93 120.71 123.094 120.71 124.938C120.71 126.797 119.819 127.945 118.382 127.945C117.007 127.945 116.03 126.75 116.03 124.938C116.03 123.133 117.007 121.93 118.382 121.93ZM129.412 126.672C129.186 127.438 128.428 127.961 127.397 127.961C125.936 127.961 125.022 126.938 125.022 125.383V125.305H130.85V124.789C130.85 122.328 129.498 120.734 127.303 120.734C125.061 120.734 123.623 122.445 123.623 124.969C123.623 127.523 125.037 129.141 127.365 129.141C129.139 129.141 130.514 128.094 130.748 126.672H129.412ZM127.279 121.914C128.561 121.914 129.412 122.883 129.444 124.242H125.029C125.115 122.891 126.006 121.914 127.279 121.914ZM143.333 123.539C143.161 122.078 141.95 120.734 139.919 120.734C137.677 120.734 136.184 122.375 136.184 124.938C136.184 127.555 137.684 129.141 139.934 129.141C141.778 129.141 143.138 128 143.349 126.383H142.013C141.778 127.359 141.052 127.945 139.942 127.945C138.536 127.945 137.567 126.828 137.567 124.938C137.567 123.094 138.52 121.93 139.927 121.93C141.122 121.93 141.809 122.656 142.005 123.539H143.333ZM148.504 129.141C150.746 129.141 152.262 127.523 152.262 124.938C152.262 122.344 150.746 120.734 148.504 120.734C146.254 120.734 144.739 122.344 144.739 124.938C144.739 127.523 146.254 129.141 148.504 129.141ZM148.504 127.945C147.067 127.945 146.121 126.852 146.121 124.938C146.121 123.023 147.067 121.93 148.504 121.93C149.942 121.93 150.879 123.023 150.879 124.938C150.879 126.852 149.942 127.945 148.504 127.945ZM154.175 129H155.535V124.219C155.535 122.844 156.371 121.938 157.652 121.938C158.902 121.938 159.519 122.656 159.519 123.969V129H160.879V123.727C160.879 121.883 159.847 120.734 158.066 120.734C156.808 120.734 155.941 121.297 155.488 122.172H155.457V120.875H154.175V129ZM163.589 129H164.948V121.992H166.605V120.875H164.941V119.977C164.941 119.172 165.292 118.781 166.026 118.781C166.253 118.781 166.48 118.805 166.644 118.828V117.727C166.448 117.695 166.12 117.664 165.816 117.664C164.316 117.664 163.589 118.406 163.589 119.969V120.875H162.456V121.992H163.589V129ZM169.299 119.43C169.776 119.43 170.151 119.047 170.151 118.578C170.151 118.102 169.776 117.727 169.299 117.727C168.831 117.727 168.448 118.102 168.448 118.578C168.448 119.047 168.831 119.43 169.299 119.43ZM168.62 129H169.979V120.875H168.62V129ZM175.705 132.062C177.947 132.062 179.377 130.773 179.377 128.836V120.875H178.08V122.242H178.056C177.517 121.297 176.564 120.734 175.416 120.734C173.314 120.734 171.955 122.359 171.955 124.906C171.955 127.43 173.314 129.062 175.385 129.062C176.525 129.062 177.486 128.484 177.986 127.602H178.017V128.883C178.017 130.094 177.166 130.906 175.76 130.906C174.744 130.906 173.939 130.414 173.674 129.672H172.275C172.502 131.055 173.916 132.062 175.705 132.062ZM175.658 127.867C174.26 127.867 173.346 126.727 173.346 124.906C173.346 123.086 174.26 121.93 175.658 121.93C177.072 121.93 178.017 123.117 178.017 124.906C178.017 126.695 177.072 127.867 175.658 127.867ZM188.361 120.875H187.001V125.648C187.001 127.031 186.204 127.938 184.884 127.938C183.626 127.938 183.009 127.227 183.009 125.906V120.875H181.65V126.148C181.65 127.992 182.689 129.141 184.462 129.141C185.712 129.141 186.556 128.617 187.04 127.68H187.072V129H188.361V120.875ZM190.665 129H192.024V123.938C192.024 122.789 192.712 122.031 193.766 122.031C194.094 122.031 194.383 122.07 194.493 122.109V120.789C194.383 120.773 194.18 120.734 193.946 120.734C192.993 120.734 192.243 121.305 191.977 122.203H191.946V120.875H190.665V129ZM201.141 126.672C200.914 127.438 200.156 127.961 199.125 127.961C197.664 127.961 196.75 126.938 196.75 125.383V125.305H202.578V124.789C202.578 122.328 201.227 120.734 199.031 120.734C196.789 120.734 195.352 122.445 195.352 124.969C195.352 127.523 196.766 129.141 199.094 129.141C200.867 129.141 202.242 128.094 202.477 126.672H201.141ZM199.008 121.914C200.289 121.914 201.141 122.883 201.172 124.242H196.758C196.844 122.891 197.734 121.914 199.008 121.914ZM207.57 129.141C208.742 129.141 209.671 128.562 210.195 127.625H210.218V129H211.515V117.727H210.156V122.195H210.124C209.64 121.305 208.703 120.734 207.538 120.734C205.492 120.734 204.093 122.391 204.093 124.938C204.093 127.484 205.499 129.141 207.57 129.141ZM207.828 121.93C209.226 121.93 210.163 123.125 210.163 124.938C210.163 126.758 209.226 127.945 207.828 127.945C206.39 127.945 205.484 126.781 205.484 124.938C205.484 123.102 206.39 121.93 207.828 121.93ZM218.459 119.43C218.936 119.43 219.311 119.047 219.311 118.578C219.311 118.102 218.936 117.727 218.459 117.727C217.99 117.727 217.608 118.102 217.608 118.578C217.608 119.047 217.99 119.43 218.459 119.43ZM217.779 129H219.139V120.875H217.779V129ZM221.513 129H222.873V124.219C222.873 122.844 223.709 121.938 224.99 121.938C226.24 121.938 226.857 122.656 226.857 123.969V129H228.216V123.727C228.216 121.883 227.185 120.734 225.404 120.734C224.146 120.734 223.279 121.297 222.826 122.172H222.794V120.875H221.513V129ZM101.265 144.977C101.398 146.922 103.038 148.188 105.499 148.188C108.023 148.188 109.663 146.883 109.663 144.797C109.663 143.203 108.734 142.266 106.382 141.75L105.132 141.477C103.593 141.141 102.992 140.531 102.992 139.641C102.992 138.492 104.078 137.805 105.484 137.805C106.953 137.805 107.929 138.562 108.054 139.797H109.46C109.398 137.883 107.773 136.539 105.523 136.539C103.187 136.539 101.546 137.844 101.546 139.703C101.546 141.305 102.523 142.328 104.781 142.82L106.031 143.094C107.593 143.438 108.218 144.062 108.218 145.008C108.218 146.117 107.109 146.922 105.578 146.922C103.96 146.922 102.835 146.188 102.671 144.977H101.265ZM117.03 145.672C116.803 146.438 116.046 146.961 115.014 146.961C113.553 146.961 112.639 145.938 112.639 144.383V144.305H118.468V143.789C118.468 141.328 117.116 139.734 114.921 139.734C112.678 139.734 111.241 141.445 111.241 143.969C111.241 146.523 112.655 148.141 114.983 148.141C116.757 148.141 118.132 147.094 118.366 145.672H117.03ZM114.897 140.914C116.178 140.914 117.03 141.883 117.061 143.242H112.647C112.733 141.891 113.624 140.914 114.897 140.914ZM120.819 137.914V139.875H119.608V140.992H120.819V145.891C120.819 147.453 121.397 148.062 122.889 148.062C123.209 148.062 123.584 148.039 123.748 148V146.859C123.654 146.875 123.342 146.898 123.186 146.898C122.49 146.898 122.178 146.562 122.178 145.82V140.992H123.756V139.875H122.178V137.914H120.819ZM126.185 137.914V139.875H124.974V140.992H126.185V145.891C126.185 147.453 126.763 148.062 128.255 148.062C128.576 148.062 128.951 148.039 129.115 148V146.859C129.021 146.875 128.709 146.898 128.552 146.898C127.857 146.898 127.544 146.562 127.544 145.82V140.992H129.123V139.875H127.544V137.914H126.185ZM131.864 138.43C132.341 138.43 132.716 138.047 132.716 137.578C132.716 137.102 132.341 136.727 131.864 136.727C131.395 136.727 131.013 137.102 131.013 137.578C131.013 138.047 131.395 138.43 131.864 138.43ZM131.184 148H132.544V139.875H131.184V148ZM134.918 148H136.278V143.219C136.278 141.844 137.114 140.938 138.395 140.938C139.645 140.938 140.262 141.656 140.262 142.969V148H141.621V142.727C141.621 140.883 140.59 139.734 138.809 139.734C137.551 139.734 136.684 140.297 136.231 141.172H136.2V139.875H134.918V148ZM147.246 151.062C149.488 151.062 150.918 149.773 150.918 147.836V139.875H149.621V141.242H149.597C149.058 140.297 148.105 139.734 146.957 139.734C144.855 139.734 143.496 141.359 143.496 143.906C143.496 146.43 144.855 148.062 146.925 148.062C148.066 148.062 149.027 147.484 149.527 146.602H149.558V147.883C149.558 149.094 148.707 149.906 147.3 149.906C146.285 149.906 145.48 149.414 145.215 148.672H143.816C144.043 150.055 145.457 151.062 147.246 151.062ZM147.199 146.867C145.8 146.867 144.886 145.727 144.886 143.906C144.886 142.086 145.8 140.93 147.199 140.93C148.613 140.93 149.558 142.117 149.558 143.906C149.558 145.695 148.613 146.867 147.199 146.867ZM153.089 142.117C153.089 143.289 153.831 144 155.362 144.367L156.651 144.68C157.581 144.906 157.901 145.242 157.901 145.828C157.901 146.562 157.222 147.031 156.12 147.031C155.019 147.031 154.394 146.586 154.23 145.656H152.87C153.026 147.18 154.214 148.141 156.12 148.141C157.933 148.141 159.269 147.141 159.269 145.727C159.269 144.562 158.675 143.922 157.034 143.523L155.745 143.211C154.839 142.992 154.425 142.609 154.425 142.047C154.425 141.336 155.081 140.844 156.073 140.844C157.073 140.844 157.698 141.367 157.8 142.219H159.097C159.042 140.781 157.855 139.734 156.073 139.734C154.316 139.734 153.089 140.727 153.089 142.117ZM162.37 148.078C162.87 148.078 163.26 147.688 163.26 147.188C163.26 146.688 162.87 146.297 162.37 146.297C161.87 146.297 161.479 146.688 161.479 147.188C161.479 147.688 161.87 148.078 162.37 148.078Z" fill="white" fill-opacity="0.87"/>
</svg>
