<svg width="24" height="24" viewBox="0 0 24 24" xmlns="http://www.w3.org/2000/svg">
<path d="M15.2399 8.82905C15.2399 7.24554 13.9034 5.94995 12.2699 5.94995H7.40991C5.4794 5.94995 3.8999 7.48111 3.8999 9.35252V18.6808C3.8999 20.5522 5.4794 22.0834 7.40991 22.0834H12.2699C13.9034 22.0834 15.2399 20.7878 15.2399 19.2043V12.2681" stroke-width="2"/>
<path d="M16.59 22.0834H11.73C10.0965 22.0834 8.76001 20.7878 8.76001 19.2043V8.82905C8.76001 7.24554 10.0965 5.94995 11.73 5.94995H16.59C18.5205 5.94995 20.1 7.48111 20.1 9.35252V18.6808C20.1 20.5522 18.5205 22.0834 16.59 22.0834Z" stroke-width="2"/>
<path d="M15.24 8.82736C15.24 7.25644 13.7858 5.9709 12 5.94995C10.2143 5.9709 8.76001 7.25644 8.76001 8.82736V19.2059C8.76001 20.7769 10.2143 22.0624 12 22.0834C13.7858 22.0624 15.24 20.7769 15.24 19.2059V12.2678" stroke-width="2"/>
<line x1="11.3801" y1="12.2098" x2="17.4801" y2="12.2098" stroke-width="2" stroke-linecap="round"/>
<path d="M14.7937 2.56872C15.179 2.13399 15.6928 1.91663 16.335 1.91663C16.9323 1.91663 17.4364 2.11286 17.8538 2.50533C18.2713 2.89779 18.48 3.37479 18.48 3.9333C18.48 4.49181 18.2713 4.96881 17.8538 5.36128C17.4364 5.75374 16.929 5.94998 16.335 5.94998H12L14.7937 2.56872Z" stroke-width="2"/>
<path d="M7.65762 5.94998C7.06242 5.94998 6.56002 5.75374 6.14402 5.36128C5.72802 4.96881 5.52002 4.49181 5.52002 3.9333C5.52002 3.37479 5.72802 2.89779 6.14402 2.50533C6.56002 2.11286 7.06242 1.91663 7.65762 1.91663C8.29762 1.91663 8.80962 2.13399 9.19362 2.56872L12 5.94998H7.65762Z" stroke-width="2"/>
<path d="M12.1567 12.4033C12.0561 12.1427 12 11.8611 12 11.5662C12 10.2459 13.0873 9.17664 14.43 9.17664C15.7708 9.17664 16.86 10.2459 16.86 11.5662C16.86 11.8611 16.802 12.1427 16.7033 12.4033" stroke-width="2"/>
</svg>
