<svg width="40" height="40" viewBox="0 0 40 40" fill="none" xmlns="http://www.w3.org/2000/svg">
<path d="M0 20C0 8.95431 8.95431 0 20 0C31.0457 0 40 8.95431 40 20C40 31.0457 31.0457 40 20 40C8.95431 40 0 31.0457 0 20Z" fill="#21CEDB"/>
<path d="M21.125 20.75H25.25C26.4926 20.75 27.5 21.7574 27.5 23V23.75" stroke="white" stroke-width="2" stroke-linecap="round" stroke-linejoin="round"/>
<path d="M12.5 26V25.25C12.5 24.0074 13.5074 23 14.75 23H19.25C20.4926 23 21.5 24.0074 21.5 25.25V26" stroke="white" stroke-width="2" stroke-linecap="round" stroke-linejoin="round"/>
<path d="M23.75 18.5C24.9926 18.5 26 17.4926 26 16.25C26 15.0074 24.9926 14 23.75 14C22.5074 14 21.5 15.0074 21.5 16.25C21.5 17.4926 22.5074 18.5 23.75 18.5Z" stroke="white" stroke-width="2" stroke-linecap="round" stroke-linejoin="round"/>
<path d="M17 20.75C18.2426 20.75 19.25 19.7426 19.25 18.5C19.25 17.2574 18.2426 16.25 17 16.25C15.7574 16.25 14.75 17.2574 14.75 18.5C14.75 19.7426 15.7574 20.75 17 20.75Z" stroke="white" stroke-width="2" stroke-linecap="round" stroke-linejoin="round"/>
</svg>
