<svg width="18" height="18" viewBox="0 0 18 18" fill="none" xmlns="http://www.w3.org/2000/svg">
<path d="M10.125 9.75H14.25C15.4926 9.75 16.5 10.7574 16.5 12V12.75" fill='none' stroke-width="2" stroke-linecap="round" stroke-linejoin="round"/>
<path d="M1.5 15V14.25C1.5 13.0074 2.50736 12 3.75 12H8.25C9.49264 12 10.5 13.0074 10.5 14.25V15" fill='none' stroke-width="2" stroke-linecap="round" stroke-linejoin="round"/>
<path d="M12.75 7.5C13.9926 7.5 15 6.49264 15 5.25C15 4.00736 13.9926 3 12.75 3C11.5074 3 10.5 4.00736 10.5 5.25C10.5 6.49264 11.5074 7.5 12.75 7.5Z" fill='none' stroke-width="2" stroke-linecap="round" stroke-linejoin="round"/>
<path d="M6 9.75C7.24264 9.75 8.25 8.74264 8.25 7.5C8.25 6.25736 7.24264 5.25 6 5.25C4.75736 5.25 3.75 6.25736 3.75 7.5C3.75 8.74264 4.75736 9.75 6 9.75Z" fill='none' stroke-width="2" stroke-linecap="round" stroke-linejoin="round"/>
</svg>
