<svg width="56" height="56" viewBox="0 0 56 56" fill="none" xmlns="http://www.w3.org/2000/svg">
<rect width="56" height="56" rx="28" fill="url(#paint0_linear)"/>
<path d="M27.4 43.8H20.2C17.34 43.8 15 41.4083 15 38.4852V23.9147C15 20.9916 17.34 18.6 20.2 18.6H27.4C29.82 18.6 31.8 20.6237 31.8 23.0971V39.3029C31.8 41.7763 29.82 43.8 27.4 43.8Z" fill="#21CEDB"/>
<path d="M34.9999 43.8H27.7999C25.3799 43.8 23.3999 41.7763 23.3999 39.3029V23.0971C23.3999 20.6237 25.3799 18.6 27.7999 18.6H34.9999C37.8599 18.6 40.1999 20.9916 40.1999 23.9147V38.4852C40.1999 41.4083 37.8599 43.8 34.9999 43.8Z" fill="#0363EF"/>
<path d="M27.5999 18.6C25.2851 18.6327 23.3999 20.6407 23.3999 23.0944V39.3055C23.3999 41.7593 25.2851 43.7673 27.5999 43.8C29.9147 43.7673 31.7999 41.7593 31.7999 39.3055V23.0944C31.7999 20.6407 29.9147 18.6327 27.5999 18.6Z" fill="#0036C5"/>
<path d="M31.2215 13.9054C31.721 13.3018 32.387 13 33.2195 13C33.9938 13 34.6473 13.2724 35.1884 13.8174C35.7295 14.3623 36.0001 15.0245 36.0001 15.8C36.0001 16.5754 35.7295 17.2377 35.1884 17.7826C34.6473 18.3275 33.9896 18.6 33.2195 18.6H27.6001L31.2215 13.9054Z" fill="#21CEDB"/>
<path d="M21.9712 18.6C21.1996 18.6 20.5483 18.3275 20.0091 17.7826C19.4698 17.2377 19.2002 16.5754 19.2002 15.8C19.2002 15.0246 19.4698 14.3623 20.0091 13.8174C20.5483 13.2725 21.1996 13 21.9712 13C22.8008 13 23.4645 13.3018 23.9623 13.9054L27.6002 18.6H21.9712Z" fill="#0363EF"/>
<rect x="0.5" y="0.5" width="55" height="55" rx="27.5" stroke="black" stroke-opacity="0.05"/>
<defs>
<linearGradient id="paint0_linear" x1="28" y1="0" x2="28" y2="56" gradientUnits="userSpaceOnUse">
<stop stop-color="#FDFBF2"/>
<stop offset="1" stop-color="#E2FAFF"/>
</linearGradient>
</defs>
</svg>
