<svg width="40" height="40" viewBox="0 0 40 40" fill="none" xmlns="http://www.w3.org/2000/svg">
<path d="M0 20C0 8.95431 8.95431 0 20 0C31.0457 0 40 8.95431 40 20C40 31.0457 31.0457 40 20 40C8.95431 40 0 31.0457 0 20Z" fill="#21CEDB"/>
<path d="M13.25 14.75C13.25 15.5784 13.25 25.25 13.25 25.25C13.25 26.0784 13.9216 26.75 14.75 26.75H24.5C25.3284 26.75 26 26.0784 26 25.25V17.75C26 16.9216 25.3284 16.25 24.5 16.25H14.75C13.9216 16.25 13.25 15.5784 13.25 14.75V14.75C13.25 13.9216 13.9216 13.25 14.75 13.25H24.5" stroke="white" stroke-width="2" stroke-linecap="round" stroke-linejoin="round"/>
<rect x="21.5" y="19.25" width="4.5" height="4.5" rx="1" stroke="white" stroke-width="2"/>
</svg>
